<svg width="756" height="224" xmlns="http://www.w3.org/2000/svg" xmlns:xlink="http://www.w3.org/1999/xlink" overflow="hidden"><g><rect x="0" y="0" width="756" height="223.784" fill="#FFFFFF"/><rect x="0" y="0" width="756" height="61.9403" fill="#4472C4"/><text fill="#FFFFFF" font-family="Cascadia Code,Cascadia Code_MSFontService,sans-serif" font-weight="400" font-size="48" transform="matrix(1 0 0 0.999036 335.705 48)">GEB</text><rect x="7.99998" y="96.9065" width="173" height="57.9442" fill="#4472C4"/><text fill="#FFFFFF" font-family="Cascadia Code,Cascadia Code_MSFontService,sans-serif" font-weight="400" font-size="37" transform="matrix(1 0 0 0.999036 32.5042 139)">CWatM</text><text fill="#FFFFFF" font-family="Cascadia Code,Cascadia Code_MSFontService,sans-serif" font-weight="400" font-size="25" transform="matrix(1 0 0 0.999036 141.695 128)">1</text><rect x="7.99998" y="164.841" width="173" height="58.9431" fill="#4472C4"/><text fill="#FFFFFF" font-family="Cascadia Code,Cascadia Code_MSFontService,sans-serif" font-weight="400" font-size="32" transform="matrix(1 0 0 0.999036 22.1686 206)">MODFLOW</text><text fill="#FFFFFF" font-family="Cascadia Code,Cascadia Code_MSFontService,sans-serif" font-weight="400" font-size="21" transform="matrix(1 0 0 0.999036 154.031 196)">2</text><rect x="197" y="96.9065" width="174" height="57.9442" fill="#ED7D31"/><text fill="#FFFFFF" font-family="Cascadia Code,Cascadia Code_MSFontService,sans-serif" font-weight="400" font-size="32" transform="matrix(1 0 0 0.999036 221.379 138)">DYNAMO</text><text fill="#FFFFFF" font-family="Cascadia Code,Cascadia Code_MSFontService,sans-serif" font-weight="400" font-size="21" transform="matrix(1 0 0 0.999036 334.404 128)">3</text><rect x="197" y="164.841" width="174" height="58.9431" fill="#ED7D31"/><text fill="#FFFFFF" font-family="Cascadia Code,Cascadia Code_MSFontService,sans-serif" font-weight="400" font-size="37" transform="matrix(1 0 0 0.999036 222.295 208)">ADOPT</text><text fill="#FFFFFF" font-family="Cascadia Code,Cascadia Code_MSFontService,sans-serif" font-weight="400" font-size="25" transform="matrix(1 0 0 0.999036 331.486 197)">4</text><rect x="386" y="96.9065" width="173" height="57.9442" fill="#70AD47"/><text fill="#FFFFFF" font-family="Cascadia Code,Cascadia Code_MSFontService,sans-serif" font-weight="400" font-size="27" transform="matrix(1 0 0 0.999036 396.62 136)">plantFATE</text><text fill="#FFFFFF" font-family="Cascadia Code,Cascadia Code_MSFontService,sans-serif" font-weight="400" font-size="18" transform="matrix(1 0 0 0.999036 537.652 128)">5</text><rect x="575" y="96.9065" width="173" height="57.9442" stroke="#FFFFFF" stroke-width="2.00044" stroke-miterlimit="8" fill="#5B9BD5"/><text fill="#FFFFFF" font-family="Cascadia Code,Cascadia Code_MSFontService,sans-serif" font-weight="400" font-size="37" transform="matrix(1 0 0 0.999036 588.64 139)">SFINCS</text><text fill="#FFFFFF" font-family="Cascadia Code,Cascadia Code_MSFontService,sans-serif" font-weight="400" font-size="25" transform="matrix(1 0 0 0.999036 719.668 128)">6</text><rect x="0" y="61.9403" width="189" height="24.9758" fill="#4472C4"/><text fill="#FFFFFF" font-family="Cascadia Code,Cascadia Code_MSFontService,sans-serif" font-weight="400" font-size="15" transform="matrix(1 0 0 0.999036 46.674 79)">water cycle</text><rect x="189" y="61.9403" width="189" height="24.9758" fill="#ED7D31"/><text fill="#FFFFFF" font-family="Cascadia Code,Cascadia Code_MSFontService,sans-serif" font-weight="400" font-size="15" transform="matrix(1 0 0 0.999036 218.355 79)">human behaviour</text><rect x="378" y="61.9403" width="189" height="24.9758" fill="#70AD47"/><text fill="#FFFFFF" font-family="Cascadia Code,Cascadia Code_MSFontService,sans-serif" font-weight="400" font-size="15" transform="matrix(1 0 0 0.999036 390.036 79)">vegetation dynamics</text><rect x="567" y="61.9403" width="189" height="24.9758" fill="#5B9BD5"/><text fill="#FFFFFF" font-family="Cascadia Code,Cascadia Code_MSFontService,sans-serif" font-weight="400" font-size="15" transform="matrix(1 0 0 0.999036 605.06 79)">hydrodynamics</text></g></svg>