<svg width="495" height="571" xmlns="http://www.w3.org/2000/svg" xmlns:xlink="http://www.w3.org/1999/xlink" overflow="hidden"><defs><clipPath id="clip0"><rect x="0" y="0" width="495" height="571"/></clipPath><clipPath id="clip1"><rect x="278" y="129" width="25" height="25"/></clipPath><clipPath id="clip2"><rect x="278" y="129" width="25" height="25"/></clipPath><clipPath id="clip3"><rect x="278" y="129" width="25" height="25"/></clipPath><clipPath id="clip4"><rect x="178" y="70" width="25" height="25"/></clipPath><clipPath id="clip5"><rect x="178" y="70" width="25" height="25"/></clipPath><clipPath id="clip6"><rect x="178" y="70" width="25" height="25"/></clipPath><clipPath id="clip7"><rect x="273" y="105" width="17" height="17"/></clipPath><clipPath id="clip8"><rect x="273" y="105" width="17" height="17"/></clipPath><clipPath id="clip9"><rect x="273" y="105" width="17" height="17"/></clipPath><clipPath id="clip10"><rect x="192" y="120" width="26" height="27"/></clipPath><clipPath id="clip11"><rect x="192" y="120" width="26" height="27"/></clipPath><clipPath id="clip12"><rect x="192" y="120" width="26" height="27"/></clipPath><clipPath id="clip13"><rect x="242" y="216" width="21" height="21"/></clipPath><clipPath id="clip14"><rect x="242" y="216" width="21" height="21"/></clipPath><clipPath id="clip15"><rect x="242" y="216" width="21" height="21"/></clipPath><clipPath id="clip16"><rect x="187" y="216" width="21" height="21"/></clipPath><clipPath id="clip17"><rect x="187" y="216" width="21" height="21"/></clipPath><clipPath id="clip18"><rect x="187" y="216" width="21" height="21"/></clipPath></defs><g clip-path="url(#clip0)"><rect x="0" y="0" width="495" height="570.525" fill="#FFFFFF"/><path d="M383.166 375.846 383.167 422.875 381.834 422.875 381.834 375.846ZM387.741 415.206 382.5 424.199 377.259 415.206C377.074 414.888 377.181 414.479 377.499 414.294 377.817 414.108 378.225 414.216 378.411 414.534L383.076 422.539 381.924 422.539 386.589 414.534C386.775 414.216 387.183 414.108 387.501 414.294 387.819 414.479 387.926 414.888 387.741 415.206Z"/><path d="M236.166 375.846 236.167 422.875 234.834 422.875 234.834 375.846ZM240.741 415.206 235.5 424.199 230.259 415.206C230.074 414.888 230.181 414.479 230.499 414.294 230.817 414.108 231.225 414.216 231.411 414.534L236.076 422.539 234.924 422.539 239.59 414.534C239.775 414.216 240.183 414.108 240.501 414.294 240.819 414.479 240.926 414.888 240.741 415.206Z"/><path d="M421.145 376.762 420.5 304.78" stroke="#000000" stroke-width="1.33288" stroke-miterlimit="8" fill="none" fill-rule="evenodd"/><path d="M0 0 0.000104952 72.3802" stroke="#000000" stroke-width="1.33288" stroke-miterlimit="8" fill="none" fill-rule="evenodd" transform="matrix(1 0 0 -1.00092 365.5 377.227)"/><path d="M0 0 0.000104952 71.9154" stroke="#000000" stroke-width="1.33288" stroke-miterlimit="8" fill="none" fill-rule="evenodd" transform="matrix(1 0 0 -1.00092 198.5 376.762)"/><path d="M0 0 0.000104952 71.9154" stroke="#000000" stroke-width="1.33288" stroke-miterlimit="8" fill="none" fill-rule="evenodd" transform="matrix(1 0 0 -1.00092 309.5 376.762)"/><path d="M0 0 0.000104952 71.9154" stroke="#000000" stroke-width="1.33288" stroke-miterlimit="8" fill="none" fill-rule="evenodd" transform="matrix(1 0 0 -1.00092 253.5 376.762)"/><path d="M0 0 0.000104952 71.9154" stroke="#000000" stroke-width="1.33288" stroke-miterlimit="8" fill="none" fill-rule="evenodd" transform="matrix(1 0 0 -1.00092 141.5 376.762)"/><rect x="119" y="205.189" width="45" height="44.0406" fill="#0068DE"/><rect x="175" y="205.189" width="44" height="44.0406" fill="#00DE0F"/><rect x="230" y="205.189" width="45" height="44.0406" fill="#00DE0F"/><rect x="286" y="205.189" width="45.0001" height="44.0406" fill="#C3FFD3"/><text font-family="Cascadia Code,Cascadia Code_MSFontService,sans-serif" font-weight="400" font-size="10" transform="matrix(1 0 0 1.00092 34.1838 231)">land use type</text><rect x="119.5" y="260.74" width="44" height="44.0405" stroke="#000000" stroke-width="1.33288" stroke-miterlimit="8" fill="#FFFFFF"/><text font-family="Cascadia Code,Cascadia Code_MSFontService,sans-serif" font-weight="400" font-size="14" transform="matrix(1 0 0 1.00092 129.392 287)">10%</text><rect x="343.5" y="205.689" width="44" height="43.0395" stroke="#000000" stroke-width="1.33288" stroke-miterlimit="8" stroke-dasharray="3.99865 1.33288" fill="#FFFFFF"/><text font-family="Cascadia Code,Cascadia Code_MSFontService,sans-serif" font-weight="400" font-size="10" transform="matrix(1 0 0 1.00092 34.1838 286)">relative size</text><rect x="176.5" y="260.74" width="42.9999" height="44.0405" stroke="#000000" stroke-width="1.33288" stroke-miterlimit="8" fill="#FFFFFF"/><text font-family="Cascadia Code,Cascadia Code_MSFontService,sans-serif" font-weight="400" font-size="14" transform="matrix(1 0 0 1.00092 185.568 287)">40%</text><rect x="231.5" y="260.74" width="44" height="44.0405" stroke="#000000" stroke-width="1.33288" stroke-miterlimit="8" fill="#FFFFFF"/><text font-family="Cascadia Code,Cascadia Code_MSFontService,sans-serif" font-weight="400" font-size="14" transform="matrix(1 0 0 1.00092 240.707 287)">20%</text><rect x="287.5" y="260.74" width="44" height="44.0405" stroke="#000000" stroke-width="1.33288" stroke-miterlimit="8" fill="#FFFFFF"/><text font-family="Cascadia Code,Cascadia Code_MSFontService,sans-serif" font-weight="400" font-size="14" transform="matrix(1 0 0 1.00092 296.883 287)">30%</text><rect x="119.5" y="316.792" width="44" height="44.0405" stroke="#000000" stroke-width="1.33288" stroke-miterlimit="8" fill="#FFFFFF"/><text font-family="Cascadia Code,Cascadia Code_MSFontService,sans-serif" font-weight="400" font-size="11" transform="matrix(1 0 0 1.00092 135.057 342)">0m</text><rect x="176.5" y="316.792" width="42.9999" height="44.0405" stroke="#000000" stroke-width="1.33288" stroke-miterlimit="8" fill="#FFFFFF"/><text font-family="Cascadia Code,Cascadia Code_MSFontService,sans-serif" font-weight="400" font-size="11" transform="matrix(1 0 0 1.00092 181.736 342)">0.02m</text><rect x="231.5" y="316.792" width="44" height="44.0405" stroke="#000000" stroke-width="1.33288" stroke-miterlimit="8" fill="#FFFFFF"/><text font-family="Cascadia Code,Cascadia Code_MSFontService,sans-serif" font-weight="400" font-size="11" transform="matrix(1 0 0 1.00092 236.875 342)">0.01m</text><rect x="287.5" y="316.792" width="44" height="44.0405" stroke="#000000" stroke-width="1.33288" stroke-miterlimit="8" fill="#FFFFFF"/><text font-family="Cascadia Code,Cascadia Code_MSFontService,sans-serif" font-weight="400" font-size="11" transform="matrix(1 0 0 1.00092 293.051 342)">0.02m<tspan font-size="10" x="-218.047" y="0">runoff</tspan><tspan font-size="11" x="-227.526" y="60.9439">“land unit”</tspan></text><rect x="343.5" y="260.74" width="44" height="44.0405" stroke="#000000" stroke-width="1.33288" stroke-miterlimit="8" stroke-dasharray="3.99865 1.33288" fill="#FFFFFF"/><text font-family="Cascadia Code,Cascadia Code_MSFontService,sans-serif" font-weight="400" font-size="14" transform="matrix(1 0 0 1.00092 353.06 287)">50%</text><rect x="343.5" y="317.792" width="44" height="44.0405" stroke="#000000" stroke-width="1.33288" stroke-miterlimit="8" stroke-dasharray="3.99865 1.33288" fill="#FFFFFF"/><text font-family="Cascadia Code,Cascadia Code_MSFontService,sans-serif" font-weight="400" font-size="11" transform="matrix(1 0 0 1.00092 349.228 343)">0.02m</text><rect x="398.5" y="205.689" width="44" height="43.0395" stroke="#000000" stroke-width="1.33288" stroke-miterlimit="8" stroke-dasharray="3.99865 1.33288" fill="#FFFFFF"/><rect x="398.5" y="260.74" width="44" height="44.0405" stroke="#000000" stroke-width="1.33288" stroke-miterlimit="8" stroke-dasharray="3.99865 1.33288" fill="#FFFFFF"/><text font-family="Cascadia Code,Cascadia Code_MSFontService,sans-serif" font-weight="400" font-size="14" transform="matrix(1 0 0 1.00092 408.147 287)">50%</text><rect x="398.5" y="317.792" width="44" height="44.0405" stroke="#000000" stroke-width="1.33288" stroke-miterlimit="8" stroke-dasharray="3.99865 1.33288" fill="#FFFFFF"/><text font-family="Cascadia Code,Cascadia Code_MSFontService,sans-serif" font-weight="400" font-size="11" transform="matrix(1 0 0 1.00092 404.315 343)">0.06m</text><rect x="206.5" y="385.855" width="55.9999" height="23.0212" stroke="#000000" stroke-width="1.33288" stroke-linejoin="round" stroke-miterlimit="10" fill="#FFFFFF"/><text font-family="Cascadia Code,Cascadia Code_MSFontService,sans-serif" font-weight="400" font-size="11" transform="matrix(1 0 0 1.00092 211.556 401)">+0.016m</text><path d="M146.5 194.679 308.774 194.679" stroke="#000000" stroke-width="1.33288" stroke-miterlimit="8" fill="none" fill-rule="evenodd"/><path d="M147.5 194.679 147.508 204.896" stroke="#000000" stroke-width="1.33288" stroke-miterlimit="8" fill="none" fill-rule="evenodd"/><text font-family="Cascadia Code,Cascadia Code_MSFontService,sans-serif" font-weight="400" font-size="11" transform="matrix(1 0 0 1.00092 211.741 21)">grid cell</text><path d="M420.5 194.679 420.5 205.051" stroke="#000000" stroke-width="1.33288" stroke-miterlimit="8" fill="none" fill-rule="evenodd"/><path d="M364.5 195.68 420.345 195.68" stroke="#000000" stroke-width="1.33288" stroke-miterlimit="8" fill="none" fill-rule="evenodd"/><path d="M364.5 195.68 364.5 204.998" stroke="#000000" stroke-width="1.33288" stroke-miterlimit="8" fill="none" fill-rule="evenodd"/><text font-family="Cascadia Code,Cascadia Code_MSFontService,sans-serif" font-weight="400" font-size="11" transform="matrix(1 0 0 1.00092 334.269 21)">“next” grid cell</text><rect x="168" y="28.0258" width="135" height="135.124" fill="#00DE0F"/><rect x="212" y="28.0258" width="91" height="69.0635" fill="#C3FFD3"/><rect x="235" y="28.0258" width="12" height="93.0856" fill="#0068DE"/><rect x="235" y="121.111" width="35" height="11.0101" fill="#0068DE"/><rect x="260" y="128.118" width="10" height="35.0322" fill="#0068DE"/><g clip-path="url(#clip1)"><g clip-path="url(#clip2)"><g clip-path="url(#clip3)"><path d="M20 16.24C19.9868 15.506 19.6441 14.8168 19.0668 14.3633 18.1325 13.599 17.0348 13.127 15.8825 12.715L14.6575 12.2118C14.5627 12.174 14.5003 12.0823 14.5 11.9803L14.5 11.3683C15.4479 10.6108 15.9999 9.46338 16 8.25L16 6.36075C18.7438 6.6925 19.041 7.204 19.041 6.3925 19.0485 5.8625 18.171 5.2075 15.581 4.43 15.4265 3.195 14.95 1 13.9415 1 12.879 1 12.6665 1.275 12.029 1.275 11.3915 1.275 11.179 1 10.1165 1 9.1165 1 8.504 3.1825 8.2915 4.42 5.6865 5.1975 4.7915 5.86 4.7915 6.3925 4.7915 7.1965 5.03225 6.7015 7.7165 6.36975L6.98 7.21075C7.31818 7.26425 7.6629 7.26105 8 7.20125L8 8.25C8.00035 9.46235 8.55158 10.6089 9.49825 11.3663L9.49825 11.98C9.4982 12.0815 9.43688 12.1728 9.343 12.2113L8.1085 12.718C7.09408 13.0473 6.1318 13.5197 5.25075 14.1208L5.25075 15.4768C5.33783 15.3477 5.44453 15.2331 5.567 15.137 6.17453 14.6613 6.84833 14.277 7.567 13.9963L7.9 17.2188 7.78925 17.2188C7.53948 17.2185 7.32785 17.4026 7.2935 17.65L6.881 20.6193C6.3252 20.532 5.77935 20.3903 5.25125 20.1963L5.25125 21.2485C6.84075 21.76 9.46075 22.0163 12.0703 22.0163 15.3953 22.0163 18.6968 21.6018 19.7988 20.775L19.9988 20.625ZM9 8.25 9 6.9665C9.5207 6.80583 10.0219 6.58783 10.4945 6.3165L9.9795 7.17025C11.0315 7.14348 12.0487 6.7878 12.8883 6.15325 13.6905 6.17075 14.3923 6.2085 15 6.25875L15 8.25C15 9.90685 13.6569 11.25 12 11.25 10.3432 11.25 9 9.90685 9 8.25ZM13.9873 12.9683C13.3429 13.1622 12.6729 13.2572 12 13.25 11.3268 13.257 10.6564 13.1619 10.0118 12.9678 10.3194 12.7326 10.4999 12.3675 10.5 11.9803L10.5 11.9553C11.4619 12.3481 12.5394 12.3481 13.5013 11.9553L13.5013 11.9803C13.5006 12.3673 13.6802 12.7326 13.9873 12.9683ZM8.61375 18.375C8.40665 18.375 8.23875 18.2071 8.23875 18 8.23875 17.7929 8.40665 17.625 8.61375 17.625 8.82085 17.625 8.98875 17.7929 8.98875 18 8.98875 18.2071 8.82085 18.375 8.61375 18.375ZM9.15825 17.2188 8.78 13.5418 8.83 13.5243C9.5625 13.9823 10.7193 14.25 12 14.25 13.2808 14.25 14.437 13.982 15.17 13.525L15.1783 13.5278 14.8 17.2188ZM15.3638 18.375C15.1567 18.375 14.9888 18.2071 14.9888 18 14.9888 17.7929 15.1567 17.625 15.3638 17.625 15.5709 17.625 15.7388 17.7929 15.7388 18 15.7388 18.2071 15.5709 18.375 15.3638 18.375ZM19 20.1018C18.392 20.3813 17.7453 20.5675 17.0818 20.6543L16.6633 17.65C16.6289 17.4028 16.4176 17.2188 16.168 17.2188L16.0575 17.2188 16.3905 13.98C17.1274 14.2651 17.8181 14.6573 18.4405 15.144 18.7835 15.4101 18.9889 15.8161 19 16.25Z" transform="matrix(1 0 0 1.00092 278 129.119)"/><path d="M6.7515 11.7525 6.7515 8.57C6.7515 8.3629 6.5836 8.195 6.3765 8.195 6.1694 8.195 6.0015 8.3629 6.0015 8.57L6.0015 11.75C6.0015 12.1297 5.6937 12.4375 5.314 12.4375L5.2915 12.4375 5.2915 8.57C5.2915 8.3629 5.1236 8.195 4.9165 8.195 4.7094 8.195 4.5415 8.3629 4.5415 8.57L4.5415 12.445 3.875 12.445 3.875 8.57C3.875 8.3629 3.7071 8.195 3.5 8.195 3.2929 8.195 3.125 8.3629 3.125 8.57L3.125 12.4375C2.77045 12.4045 2.49984 12.1061 2.5015 11.75L2.5015 8.57C2.5015 8.3629 2.33361 8.195 2.1265 8.195 1.91939 8.195 1.7515 8.3629 1.7515 8.57L1.7515 11.75C1.75274 12.5434 2.39561 13.1863 3.189 13.1875L3.689 13.1875 3.689 22 4.6965 22 4.6965 13.195 5.314 13.195C6.10923 13.1935 6.75275 12.5477 6.7515 11.7525Z" transform="matrix(1 0 0 1.00092 278 129.119)"/></g></g></g><g clip-path="url(#clip4)"><g clip-path="url(#clip5)"><g clip-path="url(#clip6)"><path d="M19.75 16.24C19.7227 15.5127 19.3855 14.8318 18.8235 14.3693 18.07 13.7293 17.0468 13.175 15.6343 12.638 16.147 11.7198 17.294 9.16825 16.1105 6.374 18.7548 6.7055 19.0425 7.19325 19.0425 6.3925 19.05 5.8625 18.1725 5.2075 15.5825 4.43 15.4265 3.195 14.95 1 13.9415 1 12.879 1 12.6665 1.275 12.029 1.275 11.3915 1.275 11.179 1 10.1165 1 9.1165 1 8.504 3.1825 8.2915 4.42 5.6865 5.1975 4.7915 5.86 4.7915 6.3925 4.7915 7.21475 5.0435 6.6785 7.902 6.3475 6.7005 9.152 7.852 11.7163 8.36775 12.6378 7 13.1578 5.99825 13.695 5.25125 14.31L5.25125 16.035C5.25125 16.0374 5.25315 16.0393 5.2555 16.0393 5.25785 16.0393 5.25975 16.0374 5.25975 16.035 5.34125 15.6789 5.54038 15.3606 5.825 15.1315 6.43565 14.6387 7.11338 14.2354 7.83775 13.9338L8.175 17.2188 8.03875 17.2188C7.78918 17.2188 7.57783 17.4028 7.5435 17.65L7.13 20.628C6.48318 20.5332 5.85158 20.3541 5.25125 20.0953L5.25125 21.1663C6.7745 21.7313 9.4295 22.014 12.0718 22.014 15.2725 22.014 18.45 21.6 19.55 20.775L19.75 20.625ZM9 7.49225C9.69325 7.404 11.417 7.09475 12.2828 6.145 12.6616 6.148 13.0199 6.15525 13.3578 6.16675 13.9617 6.56163 14.5134 7.03098 15 7.56375L15 8.25C15 9.90685 13.6569 11.25 12 11.25 10.3432 11.25 9 9.90685 9 8.25ZM13.9558 12.9775C13.3209 13.1647 12.6618 13.2565 12 13.25 11.3378 13.2563 10.6782 13.1643 10.043 12.977 10.3326 12.7401 10.5004 12.3856 10.5 12.0115L10.5 11.9553C11.4619 12.3481 12.5394 12.3481 13.5013 11.9553L13.5013 12.0108C13.4998 12.3849 13.6667 12.7399 13.9558 12.9775ZM8.864 18.375C8.6569 18.375 8.489 18.2071 8.489 18 8.489 17.7929 8.6569 17.625 8.864 17.625 9.0711 17.625 9.239 17.7929 9.239 18 9.239 18.2071 9.0711 18.375 8.864 18.375ZM9.43375 17.2188 9.06725 13.6555C9.98688 14.0742 10.9899 14.2775 12 14.25 12.9924 14.2755 13.9781 14.081 14.8865 13.6805L14.523 17.2188ZM15.114 18.375C14.9069 18.375 14.739 18.2071 14.739 18 14.739 17.7929 14.9069 17.625 15.114 17.625 15.3211 17.625 15.489 17.7929 15.489 18 15.489 18.2071 15.3211 18.375 15.114 18.375ZM18.75 20.1025C18.1431 20.3854 17.4966 20.5741 16.8328 20.6623L16.4133 17.65C16.3789 17.4028 16.1676 17.2188 15.918 17.2188L15.7818 17.2188 16.1215 13.9148C16.8609 14.2196 17.5525 14.6294 18.175 15.1315 18.5186 15.4043 18.7282 15.8118 18.75 16.25Z" transform="matrix(1 0 0 1.00092 179 70.0644)"/><path d="M6.7515 11.7525 6.7515 8.57C6.7515 8.3629 6.5836 8.195 6.3765 8.195 6.1694 8.195 6.0015 8.3629 6.0015 8.57L6.0015 11.75C6.0015 12.1297 5.6937 12.4375 5.314 12.4375L5.2915 12.4375 5.2915 8.57C5.2915 8.3629 5.1236 8.195 4.9165 8.195 4.7094 8.195 4.5415 8.3629 4.5415 8.57L4.5415 12.445 3.875 12.445 3.875 8.57C3.875 8.3629 3.7071 8.195 3.5 8.195 3.2929 8.195 3.125 8.3629 3.125 8.57L3.125 12.4375C2.77045 12.4045 2.49984 12.1061 2.5015 11.75L2.5015 8.57C2.5015 8.3629 2.33361 8.195 2.1265 8.195 1.91939 8.195 1.7515 8.3629 1.7515 8.57L1.7515 11.75C1.75274 12.5434 2.39561 13.1863 3.189 13.1875L3.689 13.1875 3.689 21.6575 4.6965 21.6575 4.6965 13.195 5.314 13.195C6.10923 13.1935 6.75275 12.5477 6.7515 11.7525Z" transform="matrix(1 0 0 1.00092 179 70.0644)"/></g></g></g><rect x="315.5" y="28.5263" width="134" height="135.124" stroke="#000000" stroke-width="1.33288" stroke-miterlimit="8" stroke-dasharray="3.99865 1.33288" fill="#FFFFFF"/><path d="M315.5 72.5668 375.908 72.5669" stroke="#000000" stroke-width="1.33288" stroke-miterlimit="8" stroke-dasharray="3.99865 1.33288" fill="none" fill-rule="evenodd"/><path d="M0 0 0.000104952 47.9731" stroke="#000000" stroke-width="1.33288" stroke-miterlimit="8" stroke-dasharray="3.99865 1.33288" fill="none" fill-rule="evenodd" transform="matrix(1 0 0 -1.00092 375.5 120.584)"/><path d="M375.5 120.611 449.532 120.611" stroke="#000000" stroke-width="1.33288" stroke-miterlimit="8" stroke-dasharray="3.99865 1.33288" fill="none" fill-rule="evenodd"/><path d="M382.5 163.651 382.5 195.266" stroke="#000000" stroke-width="1.33288" stroke-miterlimit="8" fill="none" fill-rule="evenodd"/><path d="M213.5 163.651 213.5 195.072" stroke="#000000" stroke-width="1.33288" stroke-miterlimit="8" fill="none" fill-rule="evenodd"/><rect x="168" y="423.39" width="135" height="135.124" fill="#0070C0"/><rect x="315" y="423.39" width="134" height="135.124" fill="#00B0F0"/><rect x="356.5" y="385.855" width="50" height="23.0212" stroke="#000000" stroke-width="1.33288" stroke-linejoin="round" stroke-miterlimit="10" fill="#FFFFFF"/><text font-family="Cascadia Code,Cascadia Code_MSFontService,sans-serif" font-weight="400" font-size="11" transform="matrix(1 0 0 1.00092 361.935 401)">+0.04m</text><g clip-path="url(#clip7)"><g clip-path="url(#clip8)"><g clip-path="url(#clip9)"><path d="M12.8333 5.79999C11.3333 4.16666 9.71665 5.28332 8.48332 5.56666 8.44998 5.16666 8.34998 4.79999 8.23332 4.44999 8.74998 4.39999 9.51665 4.23332 10.05 3.68333 10.9166 2.81666 10.8333 1.35 10.8333 1.35 10.8333 1.35 9.34998 1.26666 8.49998 2.13333 8.09998 2.53333 7.89998 3.06666 7.79998 3.53333 7.06665 2.3 5.99999 1.65 5.93332 1.6L5.41666 2.45C5.43332 2.46666 7.23332 3.58333 7.48332 5.54999 6.26665 5.24999 4.63332 4.16666 3.16666 5.78332 1.55 7.56665 2.93333 16.7 8.01665 14.1833 13.0833 16.7166 14.45 7.58332 12.8333 5.79999Z" transform="matrix(1 0 0 1.00092 273 105.097)"/></g></g></g><g clip-path="url(#clip10)"><g clip-path="url(#clip11)"><g clip-path="url(#clip12)"><path d="M13 14.9906C13.0623 14.8633 13.13 14.7387 13.1977 14.6169L12.8023 14.6169C12.87 14.7387 12.9377 14.8633 13 14.9906Z" transform="matrix(1 0 0 1.00092 192 120.111)"/><path d="M15.3969 8.12499C15.3657 7.9795 15.223 7.88636 15.0773 7.91645 14.8444 7.9652 14.6006 8.00853 14.3514 8.04103 14.2019 8.05075 14.0885 8.17989 14.0982 8.32947 14.1079 8.47905 14.2371 8.59242 14.3866 8.5827L14.4219 8.5827C14.6927 8.54749 14.9446 8.50415 15.1883 8.44999 15.3347 8.4193 15.4285 8.27573 15.3978 8.12935 15.3975 8.12789 15.3972 8.12642 15.3969 8.12499Z" transform="matrix(1 0 0 1.00092 192 120.111)"/><path d="M15.3969 9.20832C15.3657 9.06283 15.223 8.96969 15.0773 8.99978 14.8444 9.04853 14.6006 9.09186 14.3514 9.12436 14.2019 9.13408 14.0885 9.26322 14.0982 9.4128 14.1079 9.56238 14.2371 9.67575 14.3866 9.66603L14.4219 9.66603C14.6927 9.63082 14.9446 9.58749 15.1883 9.53332 15.3347 9.50263 15.4285 9.35907 15.3978 9.21268 15.3975 9.21122 15.3972 9.20975 15.3969 9.20832Z" transform="matrix(1 0 0 1.00092 192 120.111)"/><path d="M15.3969 10.2917C15.3657 10.1462 15.223 10.053 15.0773 10.0831 14.8444 10.1319 14.6006 10.1752 14.3514 10.2077 14.2019 10.2174 14.0885 10.3465 14.0982 10.4961 14.1079 10.6457 14.2371 10.7591 14.3866 10.7494L14.4219 10.7494C14.6927 10.7142 14.9446 10.6708 15.1883 10.6167 15.3347 10.586 15.4285 10.4424 15.3978 10.296 15.3975 10.2945 15.3972 10.2931 15.3969 10.2917Z" transform="matrix(1 0 0 1.00092 192 120.111)"/><path d="M15.3969 7.04166C15.3657 6.89616 15.223 6.80303 15.0773 6.83311 14.8444 6.88186 14.6006 6.9252 14.3514 6.9577 14.2019 6.96742 14.0885 7.09655 14.0982 7.24613 14.1079 7.39572 14.2371 7.50909 14.3866 7.49936L14.4219 7.49936C14.6927 7.46416 14.9446 7.42082 15.1883 7.36666 15.3347 7.33597 15.4285 7.1924 15.3978 7.04602 15.3975 7.04455 15.3972 7.04309 15.3969 7.04166Z" transform="matrix(1 0 0 1.00092 192 120.111)"/><path d="M14.1185 12.675C14.1367 12.8046 14.245 12.9026 14.3758 12.9079 14.5654 12.6858 14.7658 12.4691 14.9744 12.266 14.7739 12.3066 14.5654 12.3419 14.3514 12.3716 14.2035 12.3913 14.0993 12.527 14.1185 12.675Z" transform="matrix(1 0 0 1.00092 192 120.111)"/><path d="M13.5579 14.0048C13.5823 13.9641 13.6094 13.9262 13.6364 13.8856 13.6475 13.8562 13.6531 13.825 13.6527 13.7935 13.6527 13.6439 13.5314 13.5227 13.3819 13.5227 13.1381 13.5227 12.8862 13.5227 12.6425 13.5227 12.4929 13.5227 12.3716 13.6439 12.3716 13.7935 12.3722 13.8304 12.3786 13.867 12.3906 13.9019L12.4529 13.9939C12.5009 14.043 12.5658 14.0721 12.6344 14.0752L13 14.0833 13.39 14.0833C13.4534 14.0777 13.5129 14.0499 13.5579 14.0048Z" transform="matrix(1 0 0 1.00092 192 120.111)"/><path d="M15.3969 11.375C15.3657 11.2295 15.223 11.1364 15.0773 11.1664 14.8444 11.2152 14.6006 11.2585 14.3514 11.291 14.2019 11.3007 14.0885 11.4299 14.0982 11.5795 14.1079 11.729 14.2371 11.8424 14.3866 11.8327L14.4219 11.8327C14.6927 11.7975 14.9446 11.7541 15.1883 11.7 15.3347 11.6693 15.4285 11.5257 15.3978 11.3793 15.3975 11.3779 15.3972 11.3764 15.3969 11.375Z" transform="matrix(1 0 0 1.00092 192 120.111)"/><path d="M11.6458 6.95499C11.3967 6.92249 11.1529 6.88186 10.9227 6.83041 10.7731 6.79899 10.6264 6.89478 10.595 7.04436 10.5636 7.19395 10.6594 7.34066 10.8089 7.37207 11.0527 7.42353 11.3127 7.46957 11.5754 7.50207L11.6106 7.50207C11.7602 7.5118 11.8893 7.39842 11.899 7.24884 11.9088 7.09926 11.7954 6.97013 11.6458 6.96041Z" transform="matrix(1 0 0 1.00092 192 120.111)"/><path d="M11.6458 9.12165C11.3967 9.08915 11.1529 9.04853 10.9227 8.99707 10.7731 8.96565 10.6264 9.06145 10.595 9.21103 10.5636 9.36061 10.6594 9.50732 10.8089 9.53874 11.0527 9.59019 11.3127 9.63624 11.5754 9.66874L11.6106 9.66874C11.7602 9.67846 11.8893 9.56509 11.899 9.41551 11.9088 9.26593 11.7954 9.13679 11.6458 9.12707Z" transform="matrix(1 0 0 1.00092 192 120.111)"/><path d="M11.6458 11.2883C11.3967 11.2558 11.1529 11.2152 10.9227 11.1637 10.7731 11.1323 10.6264 11.2281 10.595 11.3777 10.5636 11.5273 10.6594 11.674 10.8089 11.7054 11.0527 11.7569 11.3127 11.8029 11.5754 11.8354L11.6106 11.8354C11.7602 11.8451 11.8893 11.7318 11.899 11.5822 11.9088 11.4326 11.7954 11.3035 11.6458 11.2937Z" transform="matrix(1 0 0 1.00092 192 120.111)"/><path d="M11.6458 10.205C11.3967 10.1725 11.1529 10.1319 10.9227 10.0804 10.7731 10.049 10.6264 10.1448 10.595 10.2944 10.5636 10.4439 10.6594 10.5907 10.8089 10.6221 11.0527 10.6735 11.3127 10.7196 11.5754 10.7521L11.6106 10.7521C11.7602 10.7618 11.8893 10.6484 11.899 10.4988 11.9088 10.3493 11.7954 10.2201 11.6458 10.2104Z" transform="matrix(1 0 0 1.00092 192 120.111)"/><path d="M11.6458 8.03832C11.3967 8.00582 11.1529 7.9652 10.9227 7.91374 10.7731 7.88232 10.6264 7.97812 10.595 8.1277 10.5636 8.27728 10.6594 8.42399 10.8089 8.4554 11.0527 8.50686 11.3127 8.5529 11.5754 8.5854L11.6106 8.5854C11.7602 8.59513 11.8893 8.48176 11.899 8.33218 11.9088 8.18259 11.7954 8.05346 11.6458 8.04374Z" transform="matrix(1 0 0 1.00092 192 120.111)"/><path d="M10.1562 11.245C10.2076 11.1059 10.1376 10.9514 9.99915 10.8983 9.79429 10.8225 9.59515 10.732 9.40332 10.6275 9.42228 10.4785 9.44665 10.3323 9.46832 10.1833 9.57665 10.2348 9.6904 10.2808 9.80957 10.3269 9.83996 10.3379 9.87205 10.3434 9.90436 10.3431 10.0539 10.3405 10.1731 10.2172 10.1705 10.0677 10.1686 9.95817 10.101 9.86062 9.99915 9.8204 9.85041 9.76426 9.70486 9.70007 9.56311 9.62811 9.59019 9.47644 9.62269 9.32749 9.65248 9.17853L9.80957 9.24353C9.83996 9.25455 9.87205 9.26005 9.90436 9.25978 10.0539 9.25721 10.1731 9.13389 10.1705 8.98434 10.1686 8.87484 10.101 8.77729 9.99915 8.73707 9.92061 8.70728 9.84749 8.67478 9.77436 8.64228 9.81228 8.4852 9.8529 8.32811 9.89353 8.17645L9.89353 8.17645C10.0059 8.17569 10.1061 8.10565 10.1454 8.00041 10.1887 7.87685 10.1374 7.74005 10.0235 7.67541 10.1875 7.13899 10.3828 6.61268 10.6085 6.09916 10.6369 6.19138 10.7122 6.26155 10.8062 6.28332 11.05 6.33478 11.31 6.38082 11.5727 6.41332L11.6079 6.41332C11.7575 6.42305 11.8866 6.30968 11.8963 6.1601 11.9061 6.01051 11.7927 5.88138 11.6431 5.87166 11.3939 5.83916 11.1502 5.79853 10.92 5.74707 10.864 5.73676 10.8062 5.74434 10.7548 5.76874 10.8414 5.58728 10.9308 5.40853 11.0256 5.22708 11.2044 5.25958 11.3858 5.28937 11.5673 5.31374L11.6025 5.31374C11.7521 5.32346 11.8812 5.21009 11.8909 5.06051 11.9006 4.91093 11.7873 4.7818 11.6377 4.77208 11.5266 4.75853 11.4183 4.73958 11.31 4.72333 11.421 4.54458 11.5375 4.37937 11.6566 4.21687 11.7862 4.20495 11.8816 4.09025 11.8697 3.96066 11.8693 3.95576 11.8687 3.95088 11.8679 3.94604 11.9979 3.78895 12.1387 3.63729 12.266 3.49916 12.6758 3.13671 13.2916 3.13671 13.7014 3.49916 13.8396 3.63729 13.9723 3.78895 14.105 3.94874 14.1037 3.96226 14.1037 3.97585 14.105 3.98937 14.1213 4.10022 14.2042 4.1896 14.3135 4.21416 14.4327 4.37395 14.5491 4.54187 14.6602 4.72062L14.3541 4.78833C14.2046 4.79805 14.0912 4.92718 14.1009 5.07676 14.1106 5.22634 14.2398 5.33972 14.3894 5.32999L14.4246 5.32999C14.6087 5.30562 14.7902 5.27583 14.9662 5.24333 15.061 5.41124 15.1504 5.58999 15.2371 5.77145 15.1883 5.74764 15.133 5.74095 15.08 5.75249 14.8471 5.80124 14.6033 5.84457 14.3541 5.87707 14.2046 5.8868 14.0912 6.01593 14.1009 6.16551 14.1106 6.31509 14.2398 6.42846 14.3894 6.41874L14.4246 6.41874C14.6954 6.38353 14.9473 6.3402 15.191 6.28603 15.282 6.26491 15.3557 6.19839 15.386 6.10999 15.6141 6.61794 15.8121 7.13883 15.9791 7.66999 15.8674 7.73634 15.8185 7.87273 15.8627 7.99499 15.902 8.10023 16.0022 8.17027 16.1146 8.17103L16.1146 8.17103C16.1579 8.3254 16.1958 8.48249 16.2337 8.63957 16.1606 8.66936 16.0929 8.70186 16.0144 8.73165 15.8737 8.78268 15.8011 8.938 15.8521 9.07862 15.8913 9.18657 15.9943 9.2581 16.1091 9.25707 16.1416 9.25647 16.1737 9.25005 16.2039 9.23811 16.2581 9.21915 16.3041 9.19478 16.3556 9.17582 16.3881 9.32567 16.4179 9.47463 16.445 9.62269 16.3051 9.69468 16.1613 9.75887 16.0144 9.81499 15.8737 9.86601 15.8011 10.0213 15.8521 10.1619 15.8913 10.2699 15.9943 10.3414 16.1091 10.3404 16.1416 10.3398 16.1737 10.3334 16.2039 10.3214 16.3231 10.2781 16.4341 10.2294 16.5398 10.1806 16.5641 10.3269 16.5858 10.4758 16.6048 10.6248 16.4151 10.7298 16.2177 10.8203 16.0144 10.8956 15.8753 10.9506 15.8071 11.1079 15.862 11.247 15.8896 11.3167 15.9447 11.3718 16.0144 11.3994 16.5349 11.0201 17.0931 10.6952 17.68 10.4298 17.225 7.15541 16.0875 4.35228 14.4814 2.74895 13.6481 1.96813 12.3518 1.96813 11.5185 2.74895 9.91249 4.35228 8.77499 7.15541 8.33353 10.4298 8.9191 10.6972 9.47623 11.0229 9.99644 11.4021 10.0716 11.378 10.1309 11.3197 10.1562 11.245Z" transform="matrix(1 0 0 1.00092 192 120.111)"/><path d="M13.3737 12.4583C13.13 12.4583 12.8781 12.4583 12.6344 12.4583 12.4848 12.4583 12.3635 12.5796 12.3635 12.7291 12.3635 12.8787 12.4848 13 12.6344 13L13 13 13.39 13C13.5396 13 13.6608 12.8787 13.6608 12.7291 13.6611 12.5796 13.54 12.4581 13.3905 12.4578 13.3849 12.4578 13.3793 12.458 13.3737 12.4583Z" transform="matrix(1 0 0 1.00092 192 120.111)"/><path d="M11.0229 12.266C11.2314 12.4719 11.4319 12.6858 11.6241 12.9106 11.7737 12.9188 11.9016 12.8042 11.9099 12.6547 11.9181 12.5051 11.8035 12.3772 11.6539 12.3689 11.4373 12.3446 11.226 12.3066 11.0229 12.266Z" transform="matrix(1 0 0 1.00092 192 120.111)"/><path d="M13.3737 11.375C13.13 11.375 12.8781 11.375 12.6344 11.375 12.4848 11.3698 12.3593 11.4868 12.354 11.6363 12.3488 11.7859 12.4658 11.9114 12.6154 11.9166L13 11.9166 13.39 11.9166C13.5396 11.9122 13.6572 11.7873 13.6527 11.6377 13.6482 11.4881 13.5233 11.3705 13.3737 11.375Z" transform="matrix(1 0 0 1.00092 192 120.111)"/><path d="M13.3737 5.95832C13.13 5.95832 12.8781 5.95832 12.6344 5.95832 12.4848 5.9531 12.3593 6.0701 12.354 6.21968 12.3488 6.36926 12.4658 6.49476 12.6154 6.49999L13 6.49999 13.39 6.49999C13.5396 6.49549 13.6572 6.37061 13.6527 6.22103 13.6482 6.07145 13.5233 5.95383 13.3737 5.95832Z" transform="matrix(1 0 0 1.00092 192 120.111)"/><path d="M13.3737 4.87499C13.13 4.87499 12.8781 4.87499 12.6344 4.87499 12.4848 4.86977 12.3593 4.98677 12.354 5.13635 12.3488 5.28593 12.4658 5.41143 12.6154 5.41666L13 5.41666 13.39 5.41666C13.5396 5.41666 13.6608 5.29541 13.6608 5.14583 13.6611 4.99624 13.54 4.87478 13.3905 4.87451 13.3849 4.87451 13.3793 4.87467 13.3737 4.87499Z" transform="matrix(1 0 0 1.00092 192 120.111)"/><path d="M13.3819 3.79166 13.3819 3.79166C13.1381 3.79166 12.8862 3.79166 12.6425 3.79166 12.4929 3.79166 12.3716 3.91291 12.3716 4.06249 12.3716 4.21208 12.4929 4.33333 12.6425 4.33333L13 4.33333 13.39 4.33333C13.5396 4.33333 13.6608 4.21208 13.6608 4.06249 13.6609 3.91291 13.5397 3.79161 13.3901 3.79153 13.3874 3.79153 13.3846 3.79158 13.3819 3.79166Z" transform="matrix(1 0 0 1.00092 192 120.111)"/><path d="M13.3737 7.04166C13.13 7.04166 12.8781 7.04166 12.6344 7.04166 12.4848 7.04166 12.3635 7.16291 12.3635 7.31249 12.3635 7.46207 12.4848 7.58332 12.6344 7.58332L13 7.58332 13.39 7.58332C13.5396 7.58332 13.6608 7.46207 13.6608 7.31249 13.6611 7.16291 13.54 7.04144 13.3905 7.04117 13.3849 7.04117 13.3793 7.04133 13.3737 7.04166Z" transform="matrix(1 0 0 1.00092 192 120.111)"/><path d="M13.3737 8.12499C13.13 8.12499 12.8781 8.12499 12.6344 8.12499 12.4848 8.11976 12.3593 8.23676 12.354 8.38634 12.3488 8.53592 12.4658 8.66143 12.6154 8.66665L13 8.66665 13.39 8.66665C13.5396 8.66216 13.6572 8.53728 13.6527 8.3877 13.6482 8.23811 13.5233 8.12049 13.3737 8.12499Z" transform="matrix(1 0 0 1.00092 192 120.111)"/><path d="M13.3737 10.2917C13.13 10.2917 12.8781 10.2917 12.6344 10.2917 12.4848 10.2864 12.3593 10.4034 12.354 10.553 12.3488 10.7026 12.4658 10.8281 12.6154 10.8333L13 10.8333 13.39 10.8333C13.5396 10.8333 13.6608 10.7121 13.6608 10.5625 13.6611 10.4129 13.54 10.2914 13.3905 10.2912 13.3849 10.2912 13.3793 10.2913 13.3737 10.2917Z" transform="matrix(1 0 0 1.00092 192 120.111)"/><path d="M13.3737 9.20832C13.13 9.20832 12.8781 9.20832 12.6344 9.20832 12.4848 9.20309 12.3593 9.32009 12.354 9.46967 12.3488 9.61925 12.4658 9.74476 12.6154 9.74999L13 9.74999 13.39 9.74999C13.5396 9.74549 13.6572 9.62061 13.6527 9.47103 13.6482 9.32145 13.5233 9.20382 13.3737 9.20832Z" transform="matrix(1 0 0 1.00092 192 120.111)"/><path d="M19.89 10.8333C16.1389 11.6458 13.4983 14.6439 13 18.7958 12.4989 14.6602 9.8529 11.6458 6.10999 10.8333 4.63124 10.4921 3.1525 10.4921 2.16666 11.4779 2.16666 11.4779 6.44041 11.6133 6.44041 16.6535 6.44041 19.5704 8.33624 21.4987 10.3837 21.8291 10.6243 21.8713 10.8681 21.8921 11.1123 21.8914L11.2992 21.8914C11.3911 22.8308 12.2271 23.5177 13.1664 23.4258 13.9786 23.3463 14.6213 22.7037 14.7008 21.8914L14.8958 21.8914C15.14 21.8921 15.3838 21.8713 15.6244 21.8291 17.6854 21.4987 19.5677 19.5704 19.5677 16.6535 19.5596 11.6133 23.8333 11.4779 23.8333 11.4779 22.8475 10.4921 21.3687 10.4921 19.89 10.8333Z" transform="matrix(1 0 0 1.00092 192 120.111)"/></g></g></g><g clip-path="url(#clip13)"><g clip-path="url(#clip14)"><g clip-path="url(#clip15)"><path d="M16.0417 7.24999C14.1667 5.20833 12.1458 6.60416 10.6042 6.95833 10.5625 6.45833 10.4375 6 10.2917 5.5625 10.9375 5.5 11.8958 5.29166 12.5625 4.60416 13.6458 3.52083 13.5417 1.6875 13.5417 1.6875 13.5417 1.6875 11.6875 1.58333 10.625 2.66666 10.125 3.16666 9.87499 3.83333 9.74999 4.41666 8.83333 2.875 7.49999 2.0625 7.41666 2L6.77083 3.0625C6.79166 3.08333 9.04166 4.47916 9.35416 6.93749 7.83333 6.5625 5.79166 5.20833 3.95833 7.22916 1.9375 9.45833 3.66666 20.875 10.0208 17.7292 16.3542 20.8958 18.0625 9.47916 16.0417 7.24999Z" transform="matrix(1 0 0 1.00092 243 216.199)"/></g></g></g><g clip-path="url(#clip16)"><g clip-path="url(#clip17)"><g clip-path="url(#clip18)"><path d="M10.0092 11.5419C10.0572 11.4439 10.1093 11.3479 10.1614 11.2541L9.85698 11.2541C9.90911 11.3479 9.96124 11.4439 10.0092 11.5419Z" transform="matrix(1.04903 0 0 1 187 216.199)"/><path d="M11.8546 6.25575C11.8307 6.14373 11.7208 6.07202 11.6086 6.09519 11.4293 6.13272 11.2416 6.16609 11.0497 6.19111 10.9346 6.1986 10.8473 6.29802 10.8548 6.41319 10.8623 6.52836 10.9617 6.61565 11.0769 6.60816L11.104 6.60816C11.3125 6.58105 11.5064 6.54769 11.6941 6.50598 11.8068 6.48236 11.879 6.37182 11.8554 6.25911 11.8552 6.25798 11.8549 6.25686 11.8546 6.25575Z" transform="matrix(1.04903 0 0 1 187 216.199)"/><path d="M11.8546 7.08985C11.8307 6.97783 11.7208 6.90612 11.6086 6.92929 11.4293 6.96682 11.2416 7.00019 11.0497 7.02521 10.9346 7.0327 10.8473 7.13212 10.8548 7.24729 10.8623 7.36246 10.9617 7.44975 11.0769 7.44226L11.104 7.44226C11.3125 7.41515 11.5064 7.38179 11.6941 7.34008 11.8068 7.31646 11.879 7.20592 11.8554 7.09321 11.8552 7.09208 11.8549 7.09096 11.8546 7.08985Z" transform="matrix(1.04903 0 0 1 187 216.199)"/><path d="M11.8546 7.92395C11.8307 7.81193 11.7208 7.74022 11.6086 7.76339 11.4293 7.80092 11.2416 7.83429 11.0497 7.85931 10.9346 7.8668 10.8473 7.96622 10.8548 8.08139 10.8623 8.19656 10.9617 8.28385 11.0769 8.27636L11.104 8.27636C11.3125 8.24925 11.5064 8.21589 11.6941 8.17418 11.8068 8.15056 11.879 8.04002 11.8554 7.92731 11.8552 7.92618 11.8549 7.92506 11.8546 7.92395Z" transform="matrix(1.04903 0 0 1 187 216.199)"/><path d="M11.8546 5.42165C11.8307 5.30963 11.7208 5.23792 11.6086 5.26109 11.4293 5.29862 11.2416 5.33199 11.0497 5.35701 10.9346 5.36449 10.8473 5.46392 10.8548 5.57909 10.8623 5.69426 10.9617 5.78155 11.0769 5.77406L11.104 5.77406C11.3125 5.74695 11.5064 5.71359 11.6941 5.67188 11.8068 5.64826 11.879 5.53772 11.8554 5.42501 11.8552 5.42388 11.8549 5.42276 11.8546 5.42165Z" transform="matrix(1.04903 0 0 1 187 216.199)"/><path d="M10.8704 9.75897C10.8844 9.85877 10.9678 9.93424 11.0685 9.9383 11.2145 9.76731 11.3688 9.60049 11.5294 9.4441 11.375 9.47538 11.2145 9.50249 11.0497 9.52542 10.9358 9.54056 10.8556 9.64501 10.8704 9.75897Z" transform="matrix(1.04903 0 0 1 187 216.199)"/><path d="M10.4388 10.7828C10.4575 10.7516 10.4784 10.7224 10.4992 10.6911 10.5078 10.6684 10.512 10.6444 10.5117 10.6202 10.5117 10.505 10.4184 10.4117 10.3032 10.4117 10.1156 10.4117 9.92162 10.4117 9.73395 10.4117 9.61878 10.4117 9.52542 10.505 9.52542 10.6202 9.52586 10.6486 9.53078 10.6767 9.54002 10.7036L9.58798 10.7745C9.62493 10.8123 9.67488 10.8347 9.72769 10.837L10.0092 10.8433 10.3095 10.8433C10.3583 10.839 10.4041 10.8176 10.4388 10.7828Z" transform="matrix(1.04903 0 0 1 187 216.199)"/><path d="M11.8546 8.75805C11.8307 8.64603 11.7208 8.57432 11.6086 8.59749 11.4293 8.63502 11.2416 8.66839 11.0497 8.69341 10.9346 8.7009 10.8473 8.80032 10.8548 8.91549 10.8623 9.03066 10.9617 9.11795 11.0769 9.11046L11.104 9.11046C11.3125 9.08335 11.5064 9.04999 11.6941 9.00828 11.8068 8.98466 11.879 8.87412 11.8554 8.76141 11.8552 8.76028 11.8549 8.75916 11.8546 8.75805Z" transform="matrix(1.04903 0 0 1 187 216.199)"/><path d="M8.96658 5.35492C8.77474 5.3299 8.58706 5.29862 8.40982 5.259 8.29465 5.23481 8.18169 5.30857 8.1575 5.42374 8.13331 5.53891 8.20707 5.65186 8.32224 5.67605 8.50991 5.71567 8.71009 5.75112 8.91236 5.77614L8.93947 5.77614C9.05464 5.78363 9.15406 5.69634 9.16155 5.58117 9.16903 5.466 9.08175 5.36658 8.96658 5.35909Z" transform="matrix(1.04903 0 0 1 187 216.199)"/><path d="M8.96658 7.02312C8.77474 6.9981 8.58706 6.96682 8.40982 6.9272 8.29465 6.90301 8.18169 6.97677 8.1575 7.09194 8.13331 7.20711 8.20707 7.32006 8.32224 7.34425 8.50991 7.38387 8.71009 7.41932 8.91236 7.44434L8.93947 7.44434C9.05464 7.45183 9.15406 7.36454 9.16155 7.24937 9.16903 7.13421 9.08175 7.03478 8.96658 7.02729Z" transform="matrix(1.04903 0 0 1 187 216.199)"/><path d="M8.96658 8.69132C8.77474 8.6663 8.58706 8.63502 8.40982 8.5954 8.29465 8.57121 8.18169 8.64497 8.1575 8.76014 8.13331 8.87531 8.20707 8.98826 8.32224 9.01245 8.50991 9.05207 8.71009 9.08752 8.91236 9.11255L8.93947 9.11255C9.05464 9.12003 9.15406 9.03274 9.16155 8.91757 9.16903 8.80241 9.08175 8.70298 8.96658 8.6955Z" transform="matrix(1.04903 0 0 1 187 216.199)"/><path d="M8.96658 7.85722C8.77474 7.8322 8.58706 7.80092 8.40982 7.7613 8.29465 7.73711 8.18169 7.81087 8.1575 7.92604 8.13331 8.04121 8.20707 8.15416 8.32224 8.17835 8.50991 8.21797 8.71009 8.25342 8.91236 8.27845L8.93947 8.27845C9.05464 8.28593 9.15406 8.19864 9.16155 8.08347 9.16903 7.96831 9.08175 7.86888 8.96658 7.86139Z" transform="matrix(1.04903 0 0 1 187 216.199)"/><path d="M8.96658 6.18902C8.77474 6.164 8.58706 6.13272 8.40982 6.0931 8.29465 6.06891 8.18169 6.14267 8.1575 6.25784 8.13331 6.37301 8.20707 6.48596 8.32224 6.51015 8.50991 6.54977 8.71009 6.58522 8.91236 6.61024L8.93947 6.61024C9.05464 6.61773 9.15406 6.53044 9.16155 6.41527 9.16903 6.30011 9.08175 6.20068 8.96658 6.19319Z" transform="matrix(1.04903 0 0 1 187 216.199)"/><path d="M7.81969 8.65796C7.85923 8.55088 7.80532 8.43192 7.69874 8.39105 7.54102 8.33266 7.38769 8.26297 7.23999 8.18252 7.25459 8.06783 7.27335 7.95523 7.29004 7.84054 7.37345 7.88016 7.46103 7.91561 7.55278 7.95106 7.57617 7.95955 7.60088 7.96378 7.62576 7.96357 7.74091 7.96159 7.83266 7.86665 7.83068 7.7515 7.82922 7.6672 7.77717 7.59208 7.69874 7.56112 7.58422 7.51789 7.47216 7.46847 7.36302 7.41307 7.38387 7.29629 7.4089 7.1816 7.43183 7.06691L7.55278 7.11696C7.57617 7.12545 7.60088 7.12968 7.62576 7.12947 7.74091 7.12749 7.83266 7.03255 7.83068 6.9174 7.82922 6.8331 7.77717 6.75798 7.69874 6.72702 7.63827 6.70408 7.58197 6.67906 7.52567 6.65403 7.55486 6.53309 7.58614 6.41215 7.61742 6.29537L7.61742 6.29537C7.70392 6.29479 7.78107 6.24086 7.81135 6.15983 7.84465 6.0647 7.80516 5.95937 7.71751 5.9096 7.84377 5.4966 7.99416 5.09137 8.16793 4.69598 8.18978 4.76699 8.24777 4.82102 8.32015 4.83778 8.50782 4.8774 8.70801 4.91285 8.91028 4.93787L8.93738 4.93787C9.05255 4.94536 9.15198 4.85807 9.15946 4.7429 9.16695 4.62773 9.07966 4.52831 8.96449 4.52082 8.77265 4.4958 8.58498 4.46452 8.40773 4.4249 8.36463 4.41696 8.32013 4.4228 8.28053 4.44158 8.34726 4.30187 8.41607 4.16425 8.48905 4.02453 8.62668 4.04956 8.76639 4.07249 8.90611 4.09126L8.93321 4.09126C9.04838 4.09875 9.14781 4.01146 9.15529 3.89629 9.16278 3.78112 9.07549 3.6817 8.96032 3.67421 8.87483 3.66379 8.79142 3.64919 8.70801 3.63668 8.7935 3.49905 8.88317 3.37185 8.97492 3.24674 9.0747 3.23756 9.14814 3.14925 9.13896 3.04947 9.13861 3.0457 9.13815 3.04194 9.13757 3.03821 9.23766 2.91727 9.34609 2.80049 9.4441 2.69414 9.75964 2.41507 10.2337 2.41507 10.5493 2.69414 10.6556 2.80049 10.7578 2.91727 10.86 3.0403 10.859 3.0507 10.859 3.06117 10.86 3.07157 10.8726 3.15692 10.9364 3.22574 11.0205 3.24465 11.1123 3.36768 11.202 3.49697 11.2875 3.63459L11.0518 3.68672C10.9367 3.69421 10.8494 3.79363 10.8569 3.9088 10.8643 4.02397 10.9638 4.11126 11.0789 4.10377L11.106 4.10377C11.2478 4.08501 11.3876 4.06207 11.5231 4.03705 11.5961 4.16633 11.6649 4.30396 11.7316 4.44367 11.6941 4.42534 11.6515 4.42019 11.6107 4.42907 11.4313 4.46661 11.2437 4.49997 11.0518 4.52499 10.9367 4.53248 10.8494 4.6319 10.8569 4.74707 10.8643 4.86224 10.9638 4.94953 11.0789 4.94204L11.106 4.94204C11.3146 4.91494 11.5085 4.88157 11.6962 4.83987 11.7663 4.8236 11.823 4.77239 11.8463 4.70433 12.0219 5.09541 12.1744 5.49647 12.303 5.90543 12.2169 5.95652 12.1793 6.06153 12.2133 6.15566 12.2436 6.23669 12.3207 6.29062 12.4072 6.2912L12.4072 6.2912C12.4406 6.41006 12.4698 6.531 12.499 6.65195 12.4427 6.67489 12.3906 6.69991 12.3301 6.72285 12.2218 6.76213 12.1659 6.88172 12.2052 6.98999 12.2354 7.07311 12.3147 7.12818 12.4031 7.12739 12.4281 7.12693 12.4528 7.12199 12.4761 7.11279 12.5178 7.09819 12.5532 7.07943 12.5928 7.06483 12.6179 7.18021 12.6408 7.29489 12.6616 7.4089 12.5539 7.46432 12.4433 7.51374 12.3301 7.55695 12.2218 7.59623 12.1659 7.71582 12.2052 7.82409 12.2354 7.90721 12.3147 7.96228 12.4031 7.96149 12.4281 7.96103 12.4528 7.95609 12.4761 7.94689 12.5678 7.91353 12.6533 7.87599 12.7346 7.83846 12.7534 7.95106 12.7701 8.06575 12.7847 8.18044 12.6386 8.2613 12.4866 8.33101 12.3301 8.38896 12.223 8.43129 12.1705 8.55243 12.2128 8.65954 12.234 8.71316 12.2765 8.75563 12.3301 8.77682 12.7309 8.48478 13.1606 8.23463 13.6125 8.0303 13.2622 5.50923 12.3864 3.351 11.1498 2.11653 10.5082 1.51535 9.51016 1.51535 8.86857 2.11653 7.63202 3.351 6.75621 5.50923 6.41632 8.0303 6.86717 8.23618 7.29613 8.48699 7.69666 8.7789 7.75451 8.76035 7.80015 8.71547 7.81969 8.65796Z" transform="matrix(1.04903 0 0 1 187 216.199)"/><path d="M10.297 9.59215C10.1093 9.59215 9.91537 9.59215 9.72769 9.59215 9.61252 9.59215 9.51917 9.68551 9.51917 9.80068 9.51917 9.91585 9.61252 10.0092 9.72769 10.0092L10.0092 10.0092 10.3095 10.0092C10.4246 10.0092 10.518 9.91585 10.518 9.80068 10.5182 9.68551 10.425 9.59199 10.3099 9.59178 10.3056 9.59178 10.3013 9.5919 10.297 9.59215Z" transform="matrix(1.04903 0 0 1 187 216.199)"/><path d="M8.48697 9.4441C8.64753 9.60258 8.80184 9.76731 8.94989 9.94039 9.06506 9.94673 9.16355 9.8585 9.16989 9.74333 9.17623 9.62817 9.088 9.52968 8.97283 9.52334 8.80601 9.50457 8.64336 9.47538 8.48697 9.4441Z" transform="matrix(1.04903 0 0 1 187 216.199)"/><path d="M10.297 8.75805C10.1093 8.75805 9.91537 8.75805 9.72769 8.75805 9.61252 8.75403 9.51589 8.84411 9.51187 8.95928 9.50785 9.07445 9.59793 9.17108 9.7131 9.1751L10.0092 9.1751 10.3095 9.1751C10.4246 9.17164 10.5152 9.07549 10.5117 8.96032 10.5083 8.84515 10.4121 8.75459 10.297 8.75805Z" transform="matrix(1.04903 0 0 1 187 216.199)"/><path d="M10.297 4.58755C10.1093 4.58755 9.91537 4.58755 9.72769 4.58755 9.61252 4.58353 9.51589 4.67361 9.51187 4.78878 9.50785 4.90395 9.59793 5.00058 9.7131 5.0046L10.0092 5.0046 10.3095 5.0046C10.4246 5.00114 10.5152 4.90499 10.5117 4.78982 10.5083 4.67465 10.4121 4.58409 10.297 4.58755Z" transform="matrix(1.04903 0 0 1 187 216.199)"/><path d="M10.297 3.75345C10.1093 3.75345 9.91537 3.75345 9.72769 3.75345 9.61252 3.74943 9.51589 3.83951 9.51187 3.95468 9.50785 4.06985 9.59793 4.16648 9.7131 4.1705L10.0092 4.1705 10.3095 4.1705C10.4246 4.1705 10.518 4.07714 10.518 3.96198 10.5182 3.84681 10.425 3.75328 10.3099 3.75308 10.3056 3.75308 10.3013 3.7532 10.297 3.75345Z" transform="matrix(1.04903 0 0 1 187 216.199)"/><path d="M10.3032 2.91935 10.3032 2.91935C10.1156 2.91935 9.92162 2.91935 9.73395 2.91935 9.61878 2.91935 9.52542 3.01271 9.52542 3.12788 9.52542 3.24304 9.61878 3.3364 9.73395 3.3364L10.0092 3.3364 10.3095 3.3364C10.4246 3.3364 10.518 3.24304 10.518 3.12788 10.518 3.01271 10.4247 2.91931 10.3096 2.91925 10.3075 2.91925 10.3053 2.91929 10.3032 2.91935Z" transform="matrix(1.04903 0 0 1 187 216.199)"/><path d="M10.297 5.42165C10.1093 5.42165 9.91537 5.42165 9.72769 5.42165 9.61252 5.42165 9.51917 5.51501 9.51917 5.63018 9.51917 5.74535 9.61252 5.8387 9.72769 5.8387L10.0092 5.8387 10.3095 5.8387C10.4246 5.8387 10.518 5.74535 10.518 5.63018 10.5182 5.51501 10.425 5.42148 10.3099 5.42128 10.3056 5.42128 10.3013 5.4214 10.297 5.42165Z" transform="matrix(1.04903 0 0 1 187 216.199)"/><path d="M10.297 6.25575C10.1093 6.25575 9.91537 6.25575 9.72769 6.25575 9.61252 6.25173 9.51589 6.34181 9.51187 6.45698 9.50785 6.57215 9.59793 6.66878 9.7131 6.6728L10.0092 6.6728 10.3095 6.6728C10.4246 6.66934 10.5152 6.57319 10.5117 6.45802 10.5083 6.34285 10.4121 6.25229 10.297 6.25575Z" transform="matrix(1.04903 0 0 1 187 216.199)"/><path d="M10.297 7.92395C10.1093 7.92395 9.91537 7.92395 9.72769 7.92395 9.61252 7.91993 9.51589 8.01001 9.51187 8.12518 9.50785 8.24035 9.59793 8.33698 9.7131 8.341L10.0092 8.341 10.3095 8.341C10.4246 8.341 10.518 8.24765 10.518 8.13248 10.5182 8.01731 10.425 7.92379 10.3099 7.92358 10.3056 7.92358 10.3013 7.9237 10.297 7.92395Z" transform="matrix(1.04903 0 0 1 187 216.199)"/><path d="M10.297 7.08985C10.1093 7.08985 9.91537 7.08985 9.72769 7.08985 9.61252 7.08583 9.51589 7.17591 9.51187 7.29108 9.50785 7.40625 9.59793 7.50288 9.7131 7.5069L10.0092 7.5069 10.3095 7.5069C10.4246 7.50344 10.5152 7.40729 10.5117 7.29212 10.5083 7.17695 10.4121 7.08639 10.297 7.08985Z" transform="matrix(1.04903 0 0 1 187 216.199)"/><path d="M15.3141 8.341C12.426 8.96658 10.3929 11.275 10.0092 14.4716 9.62343 11.2875 7.58614 8.96658 4.70433 8.341 3.56578 8.07826 2.42723 8.07826 1.6682 8.83729 1.6682 8.83729 4.95873 8.94156 4.95873 12.8222 4.95873 15.068 6.4184 16.5527 7.99485 16.8071 8.18004 16.8396 8.36776 16.8556 8.55578 16.8551L8.69967 16.8551C8.77044 17.5783 9.41411 18.1072 10.1374 18.0365 10.7627 17.9753 11.2575 17.4804 11.3187 16.8551L11.4689 16.8551C11.6569 16.8556 11.8446 16.8396 12.0298 16.8071 13.6167 16.5527 15.0659 15.068 15.0659 12.8222 15.0597 8.94156 18.3502 8.83729 18.3502 8.83729 17.5912 8.07826 16.4526 8.07826 15.3141 8.341Z" transform="matrix(1.04903 0 0 1 187 216.199)"/></g></g></g><path d="M464.5 28.5263 464.5 163.09" stroke="#000000" stroke-width="1.33288" stroke-miterlimit="8" stroke-dasharray="3.99865 1.33288" fill="none" fill-rule="evenodd"/><path d="M464.5 29.5272 476.122 29.5273" stroke="#000000" stroke-width="1.33288" stroke-miterlimit="8" stroke-dasharray="3.99865 1.33288" fill="none" fill-rule="evenodd"/><path d="M464.5 162.65 476.122 162.65" stroke="#000000" stroke-width="1.33288" stroke-miterlimit="8" stroke-dasharray="3.99865 1.33288" fill="none" fill-rule="evenodd"/><path d="M464.5 424.891 464.5 559.455" stroke="#000000" stroke-width="1.33288" stroke-miterlimit="8" stroke-dasharray="3.99865 1.33288" fill="none" fill-rule="evenodd"/><path d="M464.5 424.891 476.122 424.891" stroke="#000000" stroke-width="1.33288" stroke-miterlimit="8" stroke-dasharray="3.99865 1.33288" fill="none" fill-rule="evenodd"/><path d="M464.5 559.014 476.122 559.015" stroke="#000000" stroke-width="1.33288" stroke-miterlimit="8" stroke-dasharray="3.99865 1.33288" fill="none" fill-rule="evenodd"/><path d="M454.5 205.689 454.5 250.571" stroke="#000000" stroke-width="1.33288" stroke-miterlimit="8" stroke-dasharray="3.99865 1.33288" fill="none" fill-rule="evenodd"/><path d="M454.5 205.689 475.897 205.689" stroke="#000000" stroke-width="1.33288" stroke-miterlimit="8" stroke-dasharray="3.99865 1.33288" fill="none" fill-rule="evenodd"/><path d="M454.5 249.73 475.897 249.73" stroke="#000000" stroke-width="1.33288" stroke-miterlimit="8" stroke-dasharray="3.99865 1.33288" fill="none" fill-rule="evenodd"/><path d="M454.5 260.74 454.5 304.562" stroke="#000000" stroke-width="1.33288" stroke-miterlimit="8" stroke-dasharray="3.99865 1.33288" fill="none" fill-rule="evenodd"/><path d="M454.5 260.74 475.408 260.74" stroke="#000000" stroke-width="1.33288" stroke-miterlimit="8" stroke-dasharray="3.99865 1.33288" fill="none" fill-rule="evenodd"/><path d="M454.5 304.78 475.408 304.781" stroke="#000000" stroke-width="1.33288" stroke-miterlimit="8" stroke-dasharray="3.99865 1.33288" fill="none" fill-rule="evenodd"/><path d="M455.5 316.792 455.5 361.673" stroke="#000000" stroke-width="1.33288" stroke-miterlimit="8" stroke-dasharray="3.99865 1.33288" fill="none" fill-rule="evenodd"/><path d="M455.5 316.792 475.839 316.792" stroke="#000000" stroke-width="1.33288" stroke-miterlimit="8" stroke-dasharray="3.99865 1.33288" fill="none" fill-rule="evenodd"/><path d="M455.5 361.833 475.839 361.833" stroke="#000000" stroke-width="1.33288" stroke-miterlimit="8" stroke-dasharray="3.99865 1.33288" fill="none" fill-rule="evenodd"/><path d="M197.5 194.679 197.5 204.896" stroke="#000000" stroke-width="1.33288" stroke-miterlimit="8" fill="none" fill-rule="evenodd"/><path d="M253.5 194.679 253.5 204.896" stroke="#000000" stroke-width="1.33288" stroke-miterlimit="8" fill="none" fill-rule="evenodd"/><path d="M308.5 194.679 308.5 204.896" stroke="#000000" stroke-width="1.33288" stroke-miterlimit="8" fill="none" fill-rule="evenodd"/><path d="M308.998 376.965 141.5 376.847" stroke="#000000" stroke-width="1.33288" stroke-miterlimit="8" fill="none" fill-rule="evenodd"/><path d="M364.5 376.847 421.18 376.847" stroke="#000000" stroke-width="1.33288" stroke-miterlimit="8" fill="none" fill-rule="evenodd"/><path d="M81.1046 17.6552 84.9971 23.8078 87.9015 30.5005 89.6702 37.5753 90.1589 43.8743 89.1621 43.9516 88.6767 37.6945 88.6901 37.7771 86.9416 30.783 86.968 30.8607 84.0954 24.2413 84.1315 24.3095 80.2598 18.1897ZM94.1433 35.7958 89.7373 44.9021 83.9793 36.5844C83.8222 36.3574 83.8788 36.046 84.1058 35.8889 84.3328 35.7318 84.6442 35.7884 84.8013 36.0154L90.0715 43.6285 89.2105 43.6953 93.2434 35.3604C93.3636 35.1119 93.6625 35.0079 93.911 35.1281 94.1595 35.2484 94.2635 35.5473 94.1433 35.7958Z" transform="matrix(0.955257 0.295777 0.295505 -0.956137 25.3585 381.553)"/><text font-family="Cascadia Code,Cascadia Code_MSFontService,sans-serif" font-weight="400" font-size="11" transform="matrix(1 0 0 1.00092 58.2651 482)">discharge map</text><path d="M41.5433-0.375119 47.7617-0.375119 53.8241 0.44583 59.6989 2.02509 65.3212 4.42561 70.5634 7.5204 75.3636 11.31 79.6597 15.7325 82.7229 19.9577 81.9132 20.5447 78.8711 16.3486 78.9172 16.4035 74.6692 12.0305 74.718 12.0746 69.9702 8.32633 70.0258 8.36446 64.8407 5.30337 64.8986 5.33265 59.3387 2.95874 59.4052 2.98176 53.5954 1.41998 53.6581 1.43261 47.6609 0.620481 47.728 0.625004 41.5433 0.625004ZM81.898 10.9844 82.9006 21.0547 73.6413 16.9705C73.3886 16.8591 73.2741 16.5639 73.3856 16.3112 73.497 16.0585 73.7922 15.944 74.0449 16.0555L82.5199 19.7936 81.8205 20.3007 80.9028 11.0835C80.8755 10.8087 81.0761 10.5637 81.3509 10.5364 81.6257 10.509 81.8707 10.7096 81.898 10.9844Z" transform="matrix(0.706179 0.708036 0.707384 -0.70683 89.8494 459.34)"/><rect x="0" y="0" width="58" height="5" fill="#0068DE" transform="matrix(1 0 0 -1.00092 245 86.0792)"/></g></svg>