<svg width="718" height="567" xmlns="http://www.w3.org/2000/svg" xmlns:xlink="http://www.w3.org/1999/xlink" overflow="hidden"><defs><clipPath id="clip0"><rect x="0" y="0" width="718" height="567"/></clipPath><clipPath id="clip1"><rect x="306" y="43" width="141" height="141"/></clipPath><clipPath id="clip2"><rect x="306" y="43" width="141" height="141"/></clipPath><clipPath id="clip3"><rect x="306" y="43" width="141" height="141"/></clipPath></defs><g clip-path="url(#clip0)"><rect x="0" y="0" width="718" height="567" fill="#FFFFFF"/><path d="M0 0 0.000209974 12.432" stroke="#262626" stroke-miterlimit="8" fill="none" fill-rule="evenodd" transform="matrix(-1 0 0 1 115.5 462.5)"/><rect x="50" y="234" width="129" height="56" fill="#FFFFFF"/><path d="M675.995 234.084 689.411 234.067 689.394 247.483Z" fill="#FF0000" fill-rule="evenodd"/><path d="M0.49999-0.00319387 1.41871 143.819 0.418728 143.825-0.49999 0.00319387ZM5.96767 136.041 0.925054 144.814-4.22923 136.106C-4.36989 135.869-4.29128 135.562-4.05365 135.421-3.81602 135.281-3.50935 135.359-3.36869 135.597L1.34899 143.567 0.485225 143.572 5.10069 135.543C5.23831 135.303 5.54395 135.221 5.78336 135.359 6.02277 135.496 6.10529 135.802 5.96767 136.041Z" fill="#262626" transform="matrix(-1 0 0 1 626.425 87.5001)"/><rect x="50.5001" y="234.5" width="129" height="58" stroke="#0070C0" stroke-width="1.33333" stroke-miterlimit="8" fill="none"/><rect x="50" y="264" width="129" height="28" fill="#00B0F0"/><rect x="50.5001" y="234.5" width="129" height="58" stroke="#0070C0" stroke-width="1.33333" stroke-miterlimit="8" fill="none"/><text font-family="Cascadia Code,Cascadia Code_MSFontService,sans-serif" font-weight="400" font-size="11" transform="translate(74.4302 260)">Surface water <tspan font-size="11" x="9.24667" y="13">irrigation</tspan></text><rect x="210.5" y="233.5" width="129" height="58" stroke="#0070C0" stroke-width="1.33333" stroke-miterlimit="8" fill="none"/><rect x="210" y="249" width="129" height="42" fill="#00B0F0"/><rect x="210.5" y="233.5" width="129" height="58" stroke="#0070C0" stroke-width="1.33333" stroke-miterlimit="8" fill="none"/><text font-family="Cascadia Code,Cascadia Code_MSFontService,sans-serif" font-weight="400" font-size="11" transform="translate(246.753 259)">Reservoir <tspan font-size="11" x="-3.08667" y="13">irrigation</tspan></text><rect x="372.5" y="232.5" width="129" height="58" stroke="#0070C0" stroke-width="1.33333" stroke-miterlimit="8" fill="#FFFFFF"/><rect x="372" y="243" width="129" height="47" fill="#00B0F0"/><rect x="372.5" y="232.5" width="129" height="58" stroke="#0070C0" stroke-width="1.33333" stroke-miterlimit="8" fill="none"/><text font-family="Cascadia Code,Cascadia Code_MSFontService,sans-serif" font-weight="400" font-size="11" transform="translate(402.401 258)">Groundwater<tspan font-size="11" x="3.07999" y="13">irrigation</tspan></text><path d="M357 275.5 357 269 349.5 269 349.5 256 357 256 357 249.5 364.5 262.5Z" stroke="#0070C0" stroke-width="1.33333" stroke-miterlimit="8" fill="#FFFFFF" fill-rule="evenodd"/><g clip-path="url(#clip1)"><g clip-path="url(#clip2)"><g clip-path="url(#clip3)"><path d="M335.375 101.847C335.375 101.036 334.717 100.378 333.906 100.378L333.906 100.378C333.095 100.378 332.438 101.036 332.438 101.847L332.438 112.735 337.115 129.772 318.948 129.772 323.625 112.936 323.625 101.847C323.625 101.036 322.967 100.378 322.156 100.378L322.156 100.378C321.345 100.378 320.688 101.036 320.688 101.847L320.688 112.534 315.084 132.716 320.688 132.716 320.688 154.747 335.375 154.747 335.375 132.716 340.98 132.716 335.375 112.535ZM323.625 132.716 326.562 132.716 326.562 151.809 323.625 151.809ZM332.438 151.809 329.5 151.809 329.5 132.716 332.438 132.716Z" stroke="#000000" stroke-width="1.60227" fill="none"/><path d="M366.219 100.38C365.408 100.38 364.75 101.037 364.75 101.848L364.75 151.817 361.812 151.817 361.812 122.411 358.875 122.411 358.875 151.817 355.938 151.817 355.938 101.848C355.938 101.037 355.28 100.38 354.469 100.38 353.658 100.38 353 101.037 353 101.848L353 154.754 367.688 154.754 367.688 101.848C367.688 101.037 367.03 100.38 366.219 100.38Z" stroke="#000000" stroke-width="1.60227" fill="none"/><path d="M360.344 87.1609C364.4 87.1609 367.688 83.873 367.688 79.8172 367.688 75.7614 364.4 72.4734 360.344 72.4734 356.288 72.4734 353 75.7614 353 79.8172 353.005 83.8711 356.29 87.1561 360.344 87.1609ZM360.344 75.4109C362.777 75.4109 364.75 77.3836 364.75 79.8172 364.75 82.2507 362.777 84.2234 360.344 84.2234 357.91 84.2234 355.938 82.2507 355.938 79.8172 355.938 77.3836 357.91 75.4109 360.344 75.4109Z" stroke="#000000" stroke-width="1.60227" fill="none"/><path d="M328.031 87.1609C332.087 87.1609 335.375 83.873 335.375 79.8172 335.375 75.7614 332.087 72.4734 328.031 72.4734 323.975 72.4734 320.688 75.7614 320.688 79.8172 320.692 83.8711 323.977 87.1561 328.031 87.1609ZM328.031 75.4109C330.465 75.4109 332.438 77.3836 332.438 79.8172 332.438 82.2507 330.465 84.2234 328.031 84.2234 325.598 84.2234 323.625 82.2507 323.625 79.8172 323.625 77.3836 325.598 75.4109 328.031 75.4109Z" stroke="#000000" stroke-width="1.60227" fill="none"/><path d="M400 101.847C400 101.036 399.342 100.378 398.531 100.378L398.531 100.378C397.72 100.378 397.062 101.036 397.062 101.847L397.062 112.735 401.74 129.772 383.573 129.772 388.25 112.936 388.25 101.847C388.25 101.036 387.592 100.378 386.781 100.378L386.781 100.378C385.97 100.378 385.312 101.036 385.312 101.847L385.312 112.534 379.708 132.714 385.312 132.714 385.312 154.745 400 154.745 400 132.714 405.605 132.714 400 112.535ZM388.25 132.716 391.188 132.716 391.188 151.809 388.25 151.809ZM397.062 151.809 394.125 151.809 394.125 132.716 397.062 132.716Z" stroke="#000000" stroke-width="1.60227" fill="none"/><path d="M430.844 100.38C430.033 100.38 429.375 101.037 429.375 101.848L429.375 151.817 426.438 151.817 426.438 122.411 423.5 122.411 423.5 151.817 420.562 151.817 420.562 101.848C420.562 101.037 419.905 100.38 419.094 100.38 418.283 100.38 417.625 101.037 417.625 101.848L417.625 154.754 432.312 154.754 432.312 101.848C432.312 101.037 431.655 100.38 430.844 100.38Z" stroke="#000000" stroke-width="1.60227" fill="none"/><path d="M424.969 87.1609C429.025 87.1609 432.312 83.873 432.312 79.8172 432.312 75.7614 429.025 72.4734 424.969 72.4734 420.913 72.4734 417.625 75.7614 417.625 79.8172 417.63 83.8711 420.915 87.1561 424.969 87.1609ZM424.969 75.4109C427.402 75.4109 429.375 77.3836 429.375 79.8172 429.375 82.2507 427.402 84.2234 424.969 84.2234 422.535 84.2234 420.562 82.2507 420.562 79.8172 420.562 77.3836 422.535 75.4109 424.969 75.4109Z" stroke="#000000" stroke-width="1.60227" fill="none"/><path d="M392.656 87.1609C396.712 87.1609 400 83.873 400 79.8172 400 75.7614 396.712 72.4734 392.656 72.4734 388.6 72.4734 385.312 75.7614 385.312 79.8172 385.317 83.8711 388.602 87.1561 392.656 87.1609ZM392.656 75.4109C395.09 75.4109 397.062 77.3836 397.062 79.8172 397.062 82.2507 395.09 84.2234 392.656 84.2234 390.223 84.2234 388.25 82.2507 388.25 79.8172 388.25 77.3836 390.223 75.4109 392.656 75.4109Z" stroke="#000000" stroke-width="1.60227" fill="none"/><path d="M441.911 117.37 438.188 96.2495C437.954 95.3169 437.418 94.4878 436.664 93.8907 434.79 92.4856 432.665 91.4507 430.403 90.8416 428.642 90.3734 426.83 90.1238 425.008 90.0984 423.224 90.1134 421.45 90.3653 419.733 90.8475 417.478 91.4569 415.359 92.4901 413.49 93.8922 412.702 94.4963 412.155 95.3627 411.95 96.3347L408.824 112.92C408.824 112.928 408.818 112.935 408.81 112.935 408.801 112.935 408.795 112.928 408.795 112.92L405.659 96.2495C405.445 95.3085 404.905 94.4732 404.136 93.8907 402.27 92.4909 400.155 91.4586 397.903 90.8489 396.181 90.3657 394.403 90.1132 392.615 90.0984 390.786 90.1244 388.966 90.376 387.198 90.8475 384.971 91.4474 382.878 92.4643 381.03 93.8437 380.218 94.4696 379.647 95.3568 379.414 96.3553L376.424 113.662C376.424 113.67 376.417 113.676 376.409 113.676 376.401 113.676 376.394 113.67 376.394 113.662L373.562 96.2495C373.329 95.3169 372.793 94.4878 372.039 93.8907 370.165 92.4856 368.04 91.4507 365.778 90.8416 364.017 90.3734 362.205 90.1238 360.383 90.0984 358.599 90.1134 356.825 90.3653 355.108 90.8475 352.853 91.4569 350.734 92.4901 348.865 93.8922 348.077 94.4963 347.53 95.3627 347.325 96.3347L344.199 112.92C344.199 112.928 344.193 112.935 344.185 112.935 344.176 112.935 344.17 112.928 344.17 112.92L341.034 96.2495C340.82 95.3085 340.28 94.4732 339.511 93.8907 337.645 92.4909 335.53 91.4586 333.278 90.8489 331.556 90.3657 329.778 90.1132 327.99 90.0984 326.161 90.1244 324.341 90.376 322.573 90.8475 320.346 91.4474 318.253 92.4643 316.405 93.8437 315.594 94.4687 315.023 95.3542 314.789 96.3509L311.083 117.382C310.701 119.539 311.75 121.698 313.682 122.731 314.389 123.127 315.284 122.874 315.68 122.167 316.077 121.459 315.824 120.564 315.116 120.168 315.079 120.147 315.042 120.128 315.003 120.111 314.223 119.66 313.811 118.766 313.975 117.88L317.663 96.9619C317.744 96.6866 317.896 96.4378 318.104 96.2407 319.665 95.0692 321.434 94.204 323.317 93.691 324.845 93.2824 326.417 93.0623 327.999 93.0359 329.527 93.0512 331.046 93.2696 332.517 93.6851 334.408 94.1974 336.184 95.0647 337.751 96.2407 337.96 96.3977 338.108 96.6226 338.17 96.8767L342.745 121.212C342.894 122.01 343.661 122.535 344.459 122.387 345.055 122.275 345.521 121.809 345.633 121.212L350.186 96.9604C350.24 96.6744 350.397 96.418 350.626 96.2393 352.196 95.062 353.976 94.1943 355.87 93.6822 357.338 93.2672 358.855 93.0494 360.38 93.0344 361.955 93.0603 363.52 93.2782 365.041 93.6836 366.952 94.2037 368.746 95.0829 370.328 96.2745 370.483 96.4391 370.605 96.6308 370.69 96.84L374.921 122.853C375.037 123.561 375.646 124.082 376.363 124.085L376.371 124.085C377.085 124.085 377.695 123.571 377.817 122.868L382.288 96.9619C382.369 96.6866 382.521 96.4378 382.729 96.2407 384.29 95.0692 386.059 94.204 387.942 93.691 389.47 93.2824 391.042 93.0623 392.624 93.0359 394.152 93.0512 395.671 93.2696 397.142 93.6851 399.033 94.1974 400.809 95.0647 402.376 96.2407 402.585 96.3977 402.733 96.6226 402.795 96.8767L407.37 121.212C407.519 122.01 408.286 122.535 409.084 122.387 409.68 122.275 410.146 121.809 410.258 121.212L414.811 96.9604C414.865 96.6744 415.022 96.418 415.251 96.2393 416.821 95.062 418.601 94.1943 420.495 93.6822 421.963 93.2672 423.48 93.0494 425.005 93.0344 426.58 93.0603 428.145 93.2782 429.666 93.6836 431.577 94.2037 433.371 95.0829 434.953 96.2745 435.112 96.4444 435.236 96.644 435.318 96.862L439.023 117.865C439.225 118.882 438.646 119.891 437.668 120.231 437.393 120.306 437.105 120.32 436.824 120.271 436.026 120.129 435.263 120.662 435.121 121.461 434.98 122.26 435.513 123.023 436.312 123.164 437.015 123.288 437.737 123.256 438.427 123.069 440.871 122.335 442.371 119.88 441.911 117.37Z" stroke="#000000" stroke-width="1.60227" fill="none"/></g></g></g><rect x="41.5001" y="73.5001" width="148" height="32" stroke="#000000" stroke-width="1.33333" stroke-miterlimit="8" fill="none"/><text font-family="Cascadia Code,Cascadia Code_MSFontService,sans-serif" font-weight="400" font-size="11" transform="translate(81.0683 93)">Crop growth</text><rect x="42.5001" y="115.5" width="148" height="33" stroke="#000000" stroke-width="1.33333" stroke-miterlimit="8" fill="none"/><text font-family="Cascadia Code,Cascadia Code_MSFontService,sans-serif" font-weight="400" font-size="11" transform="translate(60.2707 135)">Water availability</text><rect x="553.5" y="99.5001" width="148" height="31" stroke="#000000" stroke-width="1.33333" stroke-miterlimit="8" fill="#FFFFFF"/><text font-family="Cascadia Code,Cascadia Code_MSFontService,sans-serif" font-weight="400" font-size="11" transform="translate(617.868 118)">Sow</text><rect x="553.5" y="55.5001" width="146" height="32" stroke="#000000" stroke-width="1.33333" stroke-miterlimit="8" fill="none"/><text font-family="Cascadia Code,Cascadia Code_MSFontService,sans-serif" font-weight="400" font-size="11" transform="translate(604.61 75)">Harvest</text><rect x="40.5001" y="429.5" width="149" height="33" stroke="#000000" stroke-width="1.33333" stroke-miterlimit="8" fill="none"/><text font-family="Cascadia Code,Cascadia Code_MSFontService,sans-serif" font-weight="400" font-size="11" transform="translate(80.6496 449)">Groundwater</text><rect x="302.5" y="376.5" width="149" height="96" stroke="#000000" stroke-width="1.33333" stroke-miterlimit="8" fill="none"/><text font-family="Cascadia Code,Cascadia Code_MSFontService,sans-serif" font-weight="400" font-size="21" transform="translate(345.235 431)">CWatM</text><rect x="41.5001" y="382.5" width="148" height="36" stroke="#000000" stroke-width="1.33333" stroke-miterlimit="8" fill="none"/><text font-family="Cascadia Code,Cascadia Code_MSFontService,sans-serif" font-weight="400" font-size="11" transform="translate(68.4561 404)">Reservoir store</text><rect x="40.5001" y="336.5" width="149" height="34" stroke="#000000" stroke-width="1.33333" stroke-miterlimit="8" fill="none"/><text font-family="Cascadia Code,Cascadia Code_MSFontService,sans-serif" font-weight="400" font-size="11" transform="translate(74.4829 357)">Soil moisture</text><rect x="40.5001" y="475.5" width="149" height="34" stroke="#000000" stroke-width="1.33333" stroke-miterlimit="8" fill="none"/><text font-family="Cascadia Code,Cascadia Code_MSFontService,sans-serif" font-weight="400" font-size="11" transform="translate(86.8161 495)">Discharge</text><rect x="561.5" y="232.5" width="129" height="57" stroke="#843C0C" stroke-width="1.33333" stroke-miterlimit="8" fill="#ED7D31"/><text font-family="Cascadia Code,Cascadia Code_MSFontService,sans-serif" font-weight="400" font-size="11" transform="translate(600.602 264)">Land use</text><path d="M625.5 289.5 625.5 344.795" stroke="#262626" stroke-miterlimit="8" fill="none" fill-rule="evenodd"/><path d="M195 275.5 195 269 187.5 269 187.5 256 195 256 195 249.5 202.5 262.5Z" stroke="#0070C0" stroke-width="1.33333" stroke-miterlimit="8" fill="#FFFFFF" fill-rule="evenodd"/><rect x="304.5" y="11.5001" width="148" height="35" stroke="#000000" stroke-width="1.33333" stroke-miterlimit="8" fill="none"/><text font-family="Cascadia Code,Cascadia Code_MSFontService,sans-serif" font-weight="400" font-size="11" transform="translate(325.829 32)">Behavioural rules</text><path d="M379 46.5 379 65.8539 378 65.8539 378 46.5001ZM383.599 58.1058 378.5 66.8462 373.402 58.1058C373.262 57.8673 373.343 57.5612 373.582 57.422 373.82 57.2829 374.126 57.3634 374.265 57.602L378.932 65.6019 378.068 65.602 382.735 57.6019C382.874 57.3634 383.18 57.2828 383.419 57.422 383.657 57.5611 383.738 57.8673 383.599 58.1058Z"/><path d="M0 0 385.326 2.34089" stroke="#000000" stroke-miterlimit="8" fill="none" fill-rule="evenodd" transform="matrix(-1 0 0 1 401.827 552.5)"/><path d="M15.5001 88.5001 16.692 554.065" stroke="#000000" stroke-miterlimit="8" fill="none" fill-rule="evenodd"/><path d="M40.121 89.4918 15.4901 88.9999 15.51 88.0002 40.1409 88.492ZM32.4862 83.7397 41.1231 89.0117 32.2826 93.9347C32.0414 94.0691 31.7369 93.9824 31.6025 93.7412 31.4682 93.4999 31.5548 93.1954 31.7961 93.0611L39.8877 88.5551 39.8704 89.4187 31.9652 84.5932C31.7295 84.4493 31.655 84.1416 31.7989 83.9059 31.9428 83.6702 32.2505 83.5958 32.4862 83.7397Z"/><path d="M401.5 472.5 401.5 552.418" stroke="#000000" stroke-miterlimit="8" fill="none" fill-rule="evenodd"/><rect x="553.5" y="143.5" width="148" height="31" stroke="#000000" stroke-width="1.33333" stroke-miterlimit="8" fill="#FFFFFF"/><text font-family="Cascadia Code,Cascadia Code_MSFontService,sans-serif" font-weight="400" font-size="11" transform="translate(580.868 162)">Land management</text><path d="M0 0 0.139843 11.6128" stroke="#262626" stroke-miterlimit="8" fill="none" fill-rule="evenodd" transform="matrix(-1 0 0 1 115.64 418.5)"/><path d="M115.5 370.5 115.64 382.933" stroke="#262626" stroke-miterlimit="8" fill="none" fill-rule="evenodd"/><path d="M115.053 337.219 115.001 293.491 116.001 293.49 116.053 337.217ZM110.412 301.244 115.5 292.498 120.609 301.232C120.748 301.47 120.668 301.777 120.43 301.916 120.191 302.056 119.885 301.975 119.746 301.737L115.07 293.742 115.933 293.741 111.276 301.747C111.137 301.986 110.831 302.067 110.593 301.928 110.354 301.789 110.273 301.483 110.412 301.244Z" fill="#262626"/><path d="M437.312 316.354 115.5 315.5" stroke="#262626" stroke-miterlimit="8" fill="none" fill-rule="evenodd"/><path d="M0.5-2.08998e-06 0.500101 24.1267-0.499899 24.1267-0.5 2.08998e-06ZM5.09862 16.3787 0.00010506 25.1191-5.09849 16.3787C-5.23763 16.1402-5.15706 15.834-4.91854 15.6949-4.68001 15.5557-4.37385 15.6363-4.23471 15.8748L0.431989 23.8748-0.43179 23.8748 4.23484 15.8748C4.37398 15.6363 4.68014 15.5557 4.91867 15.6948 5.15719 15.834 5.23776 16.1401 5.09862 16.3787Z" fill="#262626" transform="matrix(1 0 0 -1 274.5 316.617)"/><path d="M0.5-2.08998e-06 0.500101 24.1267-0.499899 24.1267-0.5 2.08998e-06ZM5.09862 16.3787 0.00010506 25.1191-5.09849 16.3787C-5.23763 16.1402-5.15706 15.834-4.91854 15.6949-4.68001 15.5557-4.37385 15.6363-4.23471 15.8748L0.431989 23.8748-0.43179 23.8748 4.23484 15.8748C4.37398 15.6363 4.68014 15.5557 4.91867 15.6948 5.15719 15.834 5.23776 16.1401 5.09862 16.3787Z" fill="#262626" transform="matrix(1 0 0 -1 435.5 316.617)"/><path d="M354 316.5 354 375.65 353 375.65 353 316.5ZM358.599 367.902 353.5 376.643 348.402 367.902C348.262 367.664 348.343 367.357 348.582 367.218 348.82 367.079 349.126 367.16 349.265 367.398L353.932 375.398 353.068 375.398 357.735 367.398C357.874 367.16 358.18 367.079 358.419 367.218 358.657 367.357 358.738 367.664 358.599 367.902Z" fill="#262626"/><path d="M0 0 224.468 0.223622" stroke="#262626" stroke-miterlimit="8" fill="none" fill-rule="evenodd" transform="matrix(-1 0 0 1 625.968 344.5)"/><path d="M402 344.5 402 375.141 401 375.141 401 344.5ZM406.599 367.393 401.5 376.133 396.402 367.393C396.262 367.154 396.343 366.848 396.582 366.709 396.82 366.57 397.126 366.65 397.265 366.889L401.932 374.889 401.068 374.889 405.735 366.889C405.874 366.65 406.18 366.57 406.419 366.709 406.657 366.848 406.738 367.154 406.599 367.393Z" fill="#262626"/><path d="M515.5 71.0001 553.04 71.0002 553.04 72.0002 515.5 72.0001ZM545.292 66.4016 554.032 71.5002 545.292 76.5987C545.053 76.7378 544.747 76.6573 544.608 76.4187 544.469 76.1802 544.55 75.8741 544.788 75.7349L552.788 71.0683 552.788 71.932 544.788 67.2654C544.55 67.1262 544.469 66.8201 544.608 66.5815 544.747 66.343 545.053 66.2624 545.292 66.4016Z"/><path d="M515.5 115 553.04 115 553.04 116 515.5 116ZM545.292 110.402 554.032 115.5 545.292 120.599C545.053 120.738 544.747 120.657 544.608 120.419 544.469 120.18 544.55 119.874 544.788 119.735L552.788 115.068 552.788 115.932 544.788 111.265C544.55 111.126 544.469 110.82 544.608 110.582 544.747 110.343 545.053 110.262 545.292 110.402Z"/><path d="M515.505 158 553.046 158.403 553.035 159.403 515.495 159ZM545.347 153.721 554.032 158.913 545.238 163.918C544.998 164.054 544.693 163.971 544.556 163.731 544.419 163.491 544.503 163.185 544.743 163.049L552.793 158.468 552.784 159.332 544.834 154.58C544.597 154.438 544.52 154.131 544.661 153.894 544.803 153.657 545.11 153.58 545.347 153.721Z"/><path d="M515.5 71.5001 515.5 158.568" stroke="#000000" stroke-miterlimit="8" fill="none" fill-rule="evenodd"/><path d="M452.5 115.5 514.813 115.578" stroke="#000000" stroke-miterlimit="8" fill="none" fill-rule="evenodd"/><path d="M0.990066-0.499999 73.4587-0.499895 73.4587 0.500105 0.990065 0.500001ZM8.73806 5.09857-0.0023173 1.11738e-08 8.73807-5.09854C8.9766-5.23768 9.28276-5.15711 9.4219-4.91859 9.56104-4.68006 9.48047-4.3739 9.24194-4.23476L1.24193 0.431891 1.24194-0.431888 9.24193 4.23479C9.48045 4.37393 9.56102 4.68009 9.42188 4.91862 9.28274 5.15714 8.97658 5.23771 8.73806 5.09857Z" transform="matrix(-1 0 0 1 302.959 112.5)"/><path d="M0 0 38.9916 0.260367" stroke="#000000" stroke-miterlimit="8" fill="none" fill-rule="evenodd" transform="matrix(-1 0 0 1 228.492 89.5001)"/><path d="M116 209.5 116 233.688 115 233.688 115 209.5ZM120.599 225.94 115.5 234.68 110.402 225.94C110.262 225.701 110.343 225.395 110.582 225.256 110.82 225.117 111.126 225.197 111.265 225.436L115.932 233.436 115.068 233.436 119.735 225.436C119.874 225.197 120.18 225.117 120.419 225.256 120.657 225.395 120.738 225.701 120.599 225.94Z"/><path d="M0 0 321.812 1.43339" stroke="#000000" stroke-miterlimit="8" fill="none" fill-rule="evenodd" transform="matrix(-1 0 0 1 437.312 208.5)"/><path d="M377.5 160.5 377.582 209.473" stroke="#000000" stroke-miterlimit="8" fill="none" fill-rule="evenodd"/><path d="M276 208.5 276 232.296 275 232.296 275 208.5ZM280.599 224.548 275.5 233.288 270.402 224.548C270.262 224.309 270.343 224.003 270.582 223.864 270.82 223.725 271.126 223.805 271.265 224.044L275.932 232.044 275.068 232.044 279.735 224.044C279.874 223.805 280.18 223.725 280.419 223.864 280.657 224.003 280.738 224.309 280.599 224.548Z"/><path d="M437 208.5 437 232.688 436 232.688 436 208.5ZM441.599 224.94 436.5 233.68 431.402 224.94C431.262 224.701 431.343 224.395 431.582 224.256 431.82 224.117 432.126 224.197 432.265 224.436L436.932 232.436 436.068 232.436 440.735 224.436C440.874 224.197 441.18 224.117 441.419 224.256 441.657 224.395 441.738 224.701 441.599 224.94Z"/><path d="M0 0 38.9916 0.260367" stroke="#000000" stroke-miterlimit="8" fill="none" fill-rule="evenodd" transform="matrix(-1 0 0 1 228.492 131.5)"/><path d="M116 510.49 116 532.731 115 532.731 115 510.49ZM110.402 518.238 115.5 509.498 120.599 518.238C120.738 518.477 120.657 518.783 120.419 518.922 120.18 519.061 119.874 518.981 119.735 518.742L115.068 510.742 115.932 510.742 111.265 518.742C111.126 518.981 110.82 519.061 110.581 518.922 110.343 518.783 110.262 518.477 110.402 518.238Z"/><path d="M0 0 238.573 0.484304" stroke="#000000" stroke-miterlimit="8" fill="none" fill-rule="evenodd" transform="matrix(-1 0 0 1 354.073 531.5)"/><path d="M353.5 472.5 353.5 531.866" stroke="#000000" stroke-miterlimit="8" fill="none" fill-rule="evenodd"/><text font-family="Cascadia Code,Cascadia Code_MSFontService,sans-serif" font-weight="400" font-size="12" transform="translate(222.182 548)">t+1</text><path d="M229.5 89.5001 229.5 131.265" stroke="#000000" stroke-miterlimit="8" fill="none" fill-rule="evenodd"/><path d="M42.121 131.492 17.4901 131 17.51 130 42.1409 130.492ZM34.4862 125.74 43.1231 131.012 34.2826 135.935C34.0414 136.069 33.7369 135.982 33.6025 135.741 33.4682 135.5 33.5548 135.195 33.7961 135.061L41.8877 130.555 41.8704 131.419 33.9652 126.593C33.7295 126.449 33.655 126.142 33.7989 125.906 33.9428 125.67 34.2505 125.596 34.4862 125.74Z"/></g></svg>