<?xml version="1.0" encoding="utf-8" standalone="no"?>
<!DOCTYPE svg PUBLIC "-//W3C//DTD SVG 1.1//EN"
  "http://www.w3.org/Graphics/SVG/1.1/DTD/svg11.dtd">
<svg xmlns:xlink="http://www.w3.org/1999/xlink" width="432pt" height="432pt" viewBox="0 0 432 432" xmlns="http://www.w3.org/2000/svg" version="1.1">
 <metadata>
  <rdf:RDF xmlns:dc="http://purl.org/dc/elements/1.1/" xmlns:cc="http://creativecommons.org/ns#" xmlns:rdf="http://www.w3.org/1999/02/22-rdf-syntax-ns#">
   <cc:Work>
    <dc:type rdf:resource="http://purl.org/dc/dcmitype/StillImage"/>
    <dc:date>2026-01-29T10:20:13.293297</dc:date>
    <dc:format>image/svg+xml</dc:format>
    <dc:creator>
     <cc:Agent>
      <dc:title>Matplotlib v3.10.8, https://matplotlib.org/</dc:title>
     </cc:Agent>
    </dc:creator>
   </cc:Work>
  </rdf:RDF>
 </metadata>
 <defs>
  <style type="text/css">*{stroke-linejoin: round; stroke-linecap: butt}</style>
 </defs>
 <g id="figure_1">
  <g id="patch_1">
   <path d="M 0 432 
L 432 432 
L 432 0 
L 0 0 
z
" style="fill: #ffffff"/>
  </g>
  <g id="axes_1">
   <g id="patch_2">
    <path d="M 55.08 384.48 
L 387.72 384.48 
L 387.72 51.84 
L 55.08 51.84 
z
" style="fill: #ffffff"/>
   </g>
   <g id="matplotlib.axis_1">
    <g id="xtick_1">
     <g id="line2d_1">
      <path d="M 55.08 384.48 
L 55.08 51.84 
" clip-path="url(#p7524c9f195)" style="fill: none; stroke: #cccccc; stroke-width: 0.8; stroke-linecap: round"/>
     </g>
     <g id="text_1">
      <!-- 0 -->
      <g style="fill: #262626" transform="translate(51.89875 399.078438) scale(0.1 -0.1)">
       <defs>
        <path id="DejaVuSans-30" d="M 2034 4250 
Q 1547 4250 1301 3770 
Q 1056 3291 1056 2328 
Q 1056 1369 1301 889 
Q 1547 409 2034 409 
Q 2525 409 2770 889 
Q 3016 1369 3016 2328 
Q 3016 3291 2770 3770 
Q 2525 4250 2034 4250 
z
M 2034 4750 
Q 2819 4750 3233 4129 
Q 3647 3509 3647 2328 
Q 3647 1150 3233 529 
Q 2819 -91 2034 -91 
Q 1250 -91 836 529 
Q 422 1150 422 2328 
Q 422 3509 836 4129 
Q 1250 4750 2034 4750 
z
" transform="scale(0.015625)"/>
       </defs>
       <use xlink:href="#DejaVuSans-30"/>
      </g>
     </g>
    </g>
    <g id="xtick_2">
     <g id="line2d_2">
      <path d="M 110.52 384.48 
L 110.52 51.84 
" clip-path="url(#p7524c9f195)" style="fill: none; stroke: #cccccc; stroke-width: 0.8; stroke-linecap: round"/>
     </g>
     <g id="text_2">
      <!-- 5 -->
      <g style="fill: #262626" transform="translate(107.33875 399.078438) scale(0.1 -0.1)">
       <defs>
        <path id="DejaVuSans-35" d="M 691 4666 
L 3169 4666 
L 3169 4134 
L 1269 4134 
L 1269 2991 
Q 1406 3038 1543 3061 
Q 1681 3084 1819 3084 
Q 2600 3084 3056 2656 
Q 3513 2228 3513 1497 
Q 3513 744 3044 326 
Q 2575 -91 1722 -91 
Q 1428 -91 1123 -41 
Q 819 9 494 109 
L 494 744 
Q 775 591 1075 516 
Q 1375 441 1709 441 
Q 2250 441 2565 725 
Q 2881 1009 2881 1497 
Q 2881 1984 2565 2268 
Q 2250 2553 1709 2553 
Q 1456 2553 1204 2497 
Q 953 2441 691 2322 
L 691 4666 
z
" transform="scale(0.015625)"/>
       </defs>
       <use xlink:href="#DejaVuSans-35"/>
      </g>
     </g>
    </g>
    <g id="xtick_3">
     <g id="line2d_3">
      <path d="M 165.96 384.48 
L 165.96 51.84 
" clip-path="url(#p7524c9f195)" style="fill: none; stroke: #cccccc; stroke-width: 0.8; stroke-linecap: round"/>
     </g>
     <g id="text_3">
      <!-- 10 -->
      <g style="fill: #262626" transform="translate(159.5975 399.078438) scale(0.1 -0.1)">
       <defs>
        <path id="DejaVuSans-31" d="M 794 531 
L 1825 531 
L 1825 4091 
L 703 3866 
L 703 4441 
L 1819 4666 
L 2450 4666 
L 2450 531 
L 3481 531 
L 3481 0 
L 794 0 
L 794 531 
z
" transform="scale(0.015625)"/>
       </defs>
       <use xlink:href="#DejaVuSans-31"/>
       <use xlink:href="#DejaVuSans-30" transform="translate(63.623047 0)"/>
      </g>
     </g>
    </g>
    <g id="xtick_4">
     <g id="line2d_4">
      <path d="M 221.4 384.48 
L 221.4 51.84 
" clip-path="url(#p7524c9f195)" style="fill: none; stroke: #cccccc; stroke-width: 0.8; stroke-linecap: round"/>
     </g>
     <g id="text_4">
      <!-- 15 -->
      <g style="fill: #262626" transform="translate(215.0375 399.078438) scale(0.1 -0.1)">
       <use xlink:href="#DejaVuSans-31"/>
       <use xlink:href="#DejaVuSans-35" transform="translate(63.623047 0)"/>
      </g>
     </g>
    </g>
    <g id="xtick_5">
     <g id="line2d_5">
      <path d="M 276.84 384.48 
L 276.84 51.84 
" clip-path="url(#p7524c9f195)" style="fill: none; stroke: #cccccc; stroke-width: 0.8; stroke-linecap: round"/>
     </g>
     <g id="text_5">
      <!-- 20 -->
      <g style="fill: #262626" transform="translate(270.4775 399.078438) scale(0.1 -0.1)">
       <defs>
        <path id="DejaVuSans-32" d="M 1228 531 
L 3431 531 
L 3431 0 
L 469 0 
L 469 531 
Q 828 903 1448 1529 
Q 2069 2156 2228 2338 
Q 2531 2678 2651 2914 
Q 2772 3150 2772 3378 
Q 2772 3750 2511 3984 
Q 2250 4219 1831 4219 
Q 1534 4219 1204 4116 
Q 875 4013 500 3803 
L 500 4441 
Q 881 4594 1212 4672 
Q 1544 4750 1819 4750 
Q 2544 4750 2975 4387 
Q 3406 4025 3406 3419 
Q 3406 3131 3298 2873 
Q 3191 2616 2906 2266 
Q 2828 2175 2409 1742 
Q 1991 1309 1228 531 
z
" transform="scale(0.015625)"/>
       </defs>
       <use xlink:href="#DejaVuSans-32"/>
       <use xlink:href="#DejaVuSans-30" transform="translate(63.623047 0)"/>
      </g>
     </g>
    </g>
    <g id="xtick_6">
     <g id="line2d_6">
      <path d="M 332.28 384.48 
L 332.28 51.84 
" clip-path="url(#p7524c9f195)" style="fill: none; stroke: #cccccc; stroke-width: 0.8; stroke-linecap: round"/>
     </g>
     <g id="text_6">
      <!-- 25 -->
      <g style="fill: #262626" transform="translate(325.9175 399.078438) scale(0.1 -0.1)">
       <use xlink:href="#DejaVuSans-32"/>
       <use xlink:href="#DejaVuSans-35" transform="translate(63.623047 0)"/>
      </g>
     </g>
    </g>
    <g id="xtick_7">
     <g id="line2d_7">
      <path d="M 387.72 384.48 
L 387.72 51.84 
" clip-path="url(#p7524c9f195)" style="fill: none; stroke: #cccccc; stroke-width: 0.8; stroke-linecap: round"/>
     </g>
     <g id="text_7">
      <!-- 30 -->
      <g style="fill: #262626" transform="translate(381.3575 399.078438) scale(0.1 -0.1)">
       <defs>
        <path id="DejaVuSans-33" d="M 2597 2516 
Q 3050 2419 3304 2112 
Q 3559 1806 3559 1356 
Q 3559 666 3084 287 
Q 2609 -91 1734 -91 
Q 1441 -91 1130 -33 
Q 819 25 488 141 
L 488 750 
Q 750 597 1062 519 
Q 1375 441 1716 441 
Q 2309 441 2620 675 
Q 2931 909 2931 1356 
Q 2931 1769 2642 2001 
Q 2353 2234 1838 2234 
L 1294 2234 
L 1294 2753 
L 1863 2753 
Q 2328 2753 2575 2939 
Q 2822 3125 2822 3475 
Q 2822 3834 2567 4026 
Q 2313 4219 1838 4219 
Q 1578 4219 1281 4162 
Q 984 4106 628 3988 
L 628 4550 
Q 988 4650 1302 4700 
Q 1616 4750 1894 4750 
Q 2613 4750 3031 4423 
Q 3450 4097 3450 3541 
Q 3450 3153 3228 2886 
Q 3006 2619 2597 2516 
z
" transform="scale(0.015625)"/>
       </defs>
       <use xlink:href="#DejaVuSans-33"/>
       <use xlink:href="#DejaVuSans-30" transform="translate(63.623047 0)"/>
      </g>
     </g>
    </g>
    <g id="text_8">
     <!-- Rainfall Intensity / Available Water [L/T] -->
     <g style="fill: #262626" transform="translate(108.539062 412.756563) scale(0.1 -0.1)">
      <defs>
       <path id="DejaVuSans-Bold-52" d="M 2297 2597 
Q 2675 2597 2839 2737 
Q 3003 2878 3003 3200 
Q 3003 3519 2839 3656 
Q 2675 3794 2297 3794 
L 1791 3794 
L 1791 2597 
L 2297 2597 
z
M 1791 1766 
L 1791 0 
L 588 0 
L 588 4666 
L 2425 4666 
Q 3347 4666 3776 4356 
Q 4206 4047 4206 3378 
Q 4206 2916 3982 2619 
Q 3759 2322 3309 2181 
Q 3556 2125 3751 1926 
Q 3947 1728 4147 1325 
L 4800 0 
L 3519 0 
L 2950 1159 
Q 2778 1509 2601 1637 
Q 2425 1766 2131 1766 
L 1791 1766 
z
" transform="scale(0.015625)"/>
       <path id="DejaVuSans-Bold-61" d="M 2106 1575 
Q 1756 1575 1579 1456 
Q 1403 1338 1403 1106 
Q 1403 894 1545 773 
Q 1688 653 1941 653 
Q 2256 653 2472 879 
Q 2688 1106 2688 1447 
L 2688 1575 
L 2106 1575 
z
M 3816 1997 
L 3816 0 
L 2688 0 
L 2688 519 
Q 2463 200 2181 54 
Q 1900 -91 1497 -91 
Q 953 -91 614 226 
Q 275 544 275 1050 
Q 275 1666 698 1953 
Q 1122 2241 2028 2241 
L 2688 2241 
L 2688 2328 
Q 2688 2594 2478 2717 
Q 2269 2841 1825 2841 
Q 1466 2841 1156 2769 
Q 847 2697 581 2553 
L 581 3406 
Q 941 3494 1303 3539 
Q 1666 3584 2028 3584 
Q 2975 3584 3395 3211 
Q 3816 2838 3816 1997 
z
" transform="scale(0.015625)"/>
       <path id="DejaVuSans-Bold-69" d="M 538 3500 
L 1656 3500 
L 1656 0 
L 538 0 
L 538 3500 
z
M 538 4863 
L 1656 4863 
L 1656 3950 
L 538 3950 
L 538 4863 
z
" transform="scale(0.015625)"/>
       <path id="DejaVuSans-Bold-6e" d="M 4056 2131 
L 4056 0 
L 2931 0 
L 2931 347 
L 2931 1631 
Q 2931 2084 2911 2256 
Q 2891 2428 2841 2509 
Q 2775 2619 2662 2680 
Q 2550 2741 2406 2741 
Q 2056 2741 1856 2470 
Q 1656 2200 1656 1722 
L 1656 0 
L 538 0 
L 538 3500 
L 1656 3500 
L 1656 2988 
Q 1909 3294 2193 3439 
Q 2478 3584 2822 3584 
Q 3428 3584 3742 3212 
Q 4056 2841 4056 2131 
z
" transform="scale(0.015625)"/>
       <path id="DejaVuSans-Bold-66" d="M 2841 4863 
L 2841 4128 
L 2222 4128 
Q 1984 4128 1890 4042 
Q 1797 3956 1797 3744 
L 1797 3500 
L 2753 3500 
L 2753 2700 
L 1797 2700 
L 1797 0 
L 678 0 
L 678 2700 
L 122 2700 
L 122 3500 
L 678 3500 
L 678 3744 
Q 678 4316 997 4589 
Q 1316 4863 1984 4863 
L 2841 4863 
z
" transform="scale(0.015625)"/>
       <path id="DejaVuSans-Bold-6c" d="M 538 4863 
L 1656 4863 
L 1656 0 
L 538 0 
L 538 4863 
z
" transform="scale(0.015625)"/>
       <path id="DejaVuSans-Bold-20" transform="scale(0.015625)"/>
       <path id="DejaVuSans-Bold-49" d="M 588 4666 
L 1791 4666 
L 1791 0 
L 588 0 
L 588 4666 
z
" transform="scale(0.015625)"/>
       <path id="DejaVuSans-Bold-74" d="M 1759 4494 
L 1759 3500 
L 2913 3500 
L 2913 2700 
L 1759 2700 
L 1759 1216 
Q 1759 972 1856 886 
Q 1953 800 2241 800 
L 2816 800 
L 2816 0 
L 1856 0 
Q 1194 0 917 276 
Q 641 553 641 1216 
L 641 2700 
L 84 2700 
L 84 3500 
L 641 3500 
L 641 4494 
L 1759 4494 
z
" transform="scale(0.015625)"/>
       <path id="DejaVuSans-Bold-65" d="M 4031 1759 
L 4031 1441 
L 1416 1441 
Q 1456 1047 1700 850 
Q 1944 653 2381 653 
Q 2734 653 3104 758 
Q 3475 863 3866 1075 
L 3866 213 
Q 3469 63 3072 -14 
Q 2675 -91 2278 -91 
Q 1328 -91 801 392 
Q 275 875 275 1747 
Q 275 2603 792 3093 
Q 1309 3584 2216 3584 
Q 3041 3584 3536 3087 
Q 4031 2591 4031 1759 
z
M 2881 2131 
Q 2881 2450 2695 2645 
Q 2509 2841 2209 2841 
Q 1884 2841 1681 2658 
Q 1478 2475 1428 2131 
L 2881 2131 
z
" transform="scale(0.015625)"/>
       <path id="DejaVuSans-Bold-73" d="M 3272 3391 
L 3272 2541 
Q 2913 2691 2578 2766 
Q 2244 2841 1947 2841 
Q 1628 2841 1473 2761 
Q 1319 2681 1319 2516 
Q 1319 2381 1436 2309 
Q 1553 2238 1856 2203 
L 2053 2175 
Q 2913 2066 3209 1816 
Q 3506 1566 3506 1031 
Q 3506 472 3093 190 
Q 2681 -91 1863 -91 
Q 1516 -91 1145 -36 
Q 775 19 384 128 
L 384 978 
Q 719 816 1070 734 
Q 1422 653 1784 653 
Q 2113 653 2278 743 
Q 2444 834 2444 1013 
Q 2444 1163 2330 1236 
Q 2216 1309 1875 1350 
L 1678 1375 
Q 931 1469 631 1722 
Q 331 1975 331 2491 
Q 331 3047 712 3315 
Q 1094 3584 1881 3584 
Q 2191 3584 2531 3537 
Q 2872 3491 3272 3391 
z
" transform="scale(0.015625)"/>
       <path id="DejaVuSans-Bold-79" d="M 78 3500 
L 1197 3500 
L 2138 1125 
L 2938 3500 
L 4056 3500 
L 2584 -331 
Q 2363 -916 2067 -1148 
Q 1772 -1381 1288 -1381 
L 641 -1381 
L 641 -647 
L 991 -647 
Q 1275 -647 1404 -556 
Q 1534 -466 1606 -231 
L 1638 -134 
L 78 3500 
z
" transform="scale(0.015625)"/>
       <path id="DejaVuSans-Bold-2f" d="M 1644 4666 
L 2338 4666 
L 691 -594 
L 0 -594 
L 1644 4666 
z
" transform="scale(0.015625)"/>
       <path id="DejaVuSans-Bold-41" d="M 3419 850 
L 1538 850 
L 1241 0 
L 31 0 
L 1759 4666 
L 3194 4666 
L 4922 0 
L 3713 0 
L 3419 850 
z
M 1838 1716 
L 3116 1716 
L 2478 3572 
L 1838 1716 
z
" transform="scale(0.015625)"/>
       <path id="DejaVuSans-Bold-76" d="M 97 3500 
L 1216 3500 
L 2088 1081 
L 2956 3500 
L 4078 3500 
L 2700 0 
L 1472 0 
L 97 3500 
z
" transform="scale(0.015625)"/>
       <path id="DejaVuSans-Bold-62" d="M 2400 722 
Q 2759 722 2948 984 
Q 3138 1247 3138 1747 
Q 3138 2247 2948 2509 
Q 2759 2772 2400 2772 
Q 2041 2772 1848 2508 
Q 1656 2244 1656 1747 
Q 1656 1250 1848 986 
Q 2041 722 2400 722 
z
M 1656 2988 
Q 1888 3294 2169 3439 
Q 2450 3584 2816 3584 
Q 3463 3584 3878 3070 
Q 4294 2556 4294 1747 
Q 4294 938 3878 423 
Q 3463 -91 2816 -91 
Q 2450 -91 2169 54 
Q 1888 200 1656 506 
L 1656 0 
L 538 0 
L 538 4863 
L 1656 4863 
L 1656 2988 
z
" transform="scale(0.015625)"/>
       <path id="DejaVuSans-Bold-57" d="M 191 4666 
L 1344 4666 
L 2150 1275 
L 2950 4666 
L 4109 4666 
L 4909 1275 
L 5716 4666 
L 6859 4666 
L 5759 0 
L 4372 0 
L 3525 3547 
L 2688 0 
L 1300 0 
L 191 4666 
z
" transform="scale(0.015625)"/>
       <path id="DejaVuSans-Bold-72" d="M 3138 2547 
Q 2991 2616 2845 2648 
Q 2700 2681 2553 2681 
Q 2122 2681 1889 2404 
Q 1656 2128 1656 1613 
L 1656 0 
L 538 0 
L 538 3500 
L 1656 3500 
L 1656 2925 
Q 1872 3269 2151 3426 
Q 2431 3584 2822 3584 
Q 2878 3584 2943 3579 
Q 3009 3575 3134 3559 
L 3138 2547 
z
" transform="scale(0.015625)"/>
       <path id="DejaVuSans-Bold-5b" d="M 550 4863 
L 2491 4863 
L 2491 4159 
L 1613 4159 
L 1613 -141 
L 2491 -141 
L 2491 -844 
L 550 -844 
L 550 4863 
z
" transform="scale(0.015625)"/>
       <path id="DejaVuSans-Bold-4c" d="M 588 4666 
L 1791 4666 
L 1791 909 
L 3903 909 
L 3903 0 
L 588 0 
L 588 4666 
z
" transform="scale(0.015625)"/>
       <path id="DejaVuSans-Bold-54" d="M 31 4666 
L 4331 4666 
L 4331 3756 
L 2784 3756 
L 2784 0 
L 1581 0 
L 1581 3756 
L 31 3756 
L 31 4666 
z
" transform="scale(0.015625)"/>
       <path id="DejaVuSans-Bold-5d" d="M 2375 -844 
L 434 -844 
L 434 -141 
L 1313 -141 
L 1313 4159 
L 434 4159 
L 434 4863 
L 2375 4863 
L 2375 -844 
z
" transform="scale(0.015625)"/>
      </defs>
      <use xlink:href="#DejaVuSans-Bold-52"/>
      <use xlink:href="#DejaVuSans-Bold-61" transform="translate(77.001953 0)"/>
      <use xlink:href="#DejaVuSans-Bold-69" transform="translate(144.482422 0)"/>
      <use xlink:href="#DejaVuSans-Bold-6e" transform="translate(178.759766 0)"/>
      <use xlink:href="#DejaVuSans-Bold-66" transform="translate(249.951172 0)"/>
      <use xlink:href="#DejaVuSans-Bold-61" transform="translate(293.457031 0)"/>
      <use xlink:href="#DejaVuSans-Bold-6c" transform="translate(360.9375 0)"/>
      <use xlink:href="#DejaVuSans-Bold-6c" transform="translate(395.214844 0)"/>
      <use xlink:href="#DejaVuSans-Bold-20" transform="translate(429.492188 0)"/>
      <use xlink:href="#DejaVuSans-Bold-49" transform="translate(464.306641 0)"/>
      <use xlink:href="#DejaVuSans-Bold-6e" transform="translate(501.513672 0)"/>
      <use xlink:href="#DejaVuSans-Bold-74" transform="translate(572.705078 0)"/>
      <use xlink:href="#DejaVuSans-Bold-65" transform="translate(620.507812 0)"/>
      <use xlink:href="#DejaVuSans-Bold-6e" transform="translate(688.330078 0)"/>
      <use xlink:href="#DejaVuSans-Bold-73" transform="translate(759.521484 0)"/>
      <use xlink:href="#DejaVuSans-Bold-69" transform="translate(819.042969 0)"/>
      <use xlink:href="#DejaVuSans-Bold-74" transform="translate(853.320312 0)"/>
      <use xlink:href="#DejaVuSans-Bold-79" transform="translate(901.123047 0)"/>
      <use xlink:href="#DejaVuSans-Bold-20" transform="translate(966.308594 0)"/>
      <use xlink:href="#DejaVuSans-Bold-2f" transform="translate(1001.123047 0)"/>
      <use xlink:href="#DejaVuSans-Bold-20" transform="translate(1037.646484 0)"/>
      <use xlink:href="#DejaVuSans-Bold-41" transform="translate(1072.460938 0)"/>
      <use xlink:href="#DejaVuSans-Bold-76" transform="translate(1146.228516 0)"/>
      <use xlink:href="#DejaVuSans-Bold-61" transform="translate(1211.414062 0)"/>
      <use xlink:href="#DejaVuSans-Bold-69" transform="translate(1278.894531 0)"/>
      <use xlink:href="#DejaVuSans-Bold-6c" transform="translate(1313.171875 0)"/>
      <use xlink:href="#DejaVuSans-Bold-61" transform="translate(1347.449219 0)"/>
      <use xlink:href="#DejaVuSans-Bold-62" transform="translate(1414.929688 0)"/>
      <use xlink:href="#DejaVuSans-Bold-6c" transform="translate(1486.511719 0)"/>
      <use xlink:href="#DejaVuSans-Bold-65" transform="translate(1520.789062 0)"/>
      <use xlink:href="#DejaVuSans-Bold-20" transform="translate(1588.611328 0)"/>
      <use xlink:href="#DejaVuSans-Bold-57" transform="translate(1623.425781 0)"/>
      <use xlink:href="#DejaVuSans-Bold-61" transform="translate(1730.103516 0)"/>
      <use xlink:href="#DejaVuSans-Bold-74" transform="translate(1797.583984 0)"/>
      <use xlink:href="#DejaVuSans-Bold-65" transform="translate(1845.386719 0)"/>
      <use xlink:href="#DejaVuSans-Bold-72" transform="translate(1913.208984 0)"/>
      <use xlink:href="#DejaVuSans-Bold-20" transform="translate(1962.525391 0)"/>
      <use xlink:href="#DejaVuSans-Bold-5b" transform="translate(1997.339844 0)"/>
      <use xlink:href="#DejaVuSans-Bold-4c" transform="translate(2043.042969 0)"/>
      <use xlink:href="#DejaVuSans-Bold-2f" transform="translate(2106.763672 0)"/>
      <use xlink:href="#DejaVuSans-Bold-54" transform="translate(2143.287109 0)"/>
      <use xlink:href="#DejaVuSans-Bold-5d" transform="translate(2211.5 0)"/>
     </g>
    </g>
   </g>
   <g id="matplotlib.axis_2">
    <g id="ytick_1">
     <g id="line2d_8">
      <path d="M 55.08 384.48 
L 387.72 384.48 
" clip-path="url(#p7524c9f195)" style="fill: none; stroke: #cccccc; stroke-width: 0.8; stroke-linecap: round"/>
     </g>
     <g id="text_9">
      <!-- 0 -->
      <g style="fill: #262626" transform="translate(41.7175 388.279219) scale(0.1 -0.1)">
       <use xlink:href="#DejaVuSans-30"/>
      </g>
     </g>
    </g>
    <g id="ytick_2">
     <g id="line2d_9">
      <path d="M 55.08 329.04 
L 387.72 329.04 
" clip-path="url(#p7524c9f195)" style="fill: none; stroke: #cccccc; stroke-width: 0.8; stroke-linecap: round"/>
     </g>
     <g id="text_10">
      <!-- 5 -->
      <g style="fill: #262626" transform="translate(41.7175 332.839219) scale(0.1 -0.1)">
       <use xlink:href="#DejaVuSans-35"/>
      </g>
     </g>
    </g>
    <g id="ytick_3">
     <g id="line2d_10">
      <path d="M 55.08 273.6 
L 387.72 273.6 
" clip-path="url(#p7524c9f195)" style="fill: none; stroke: #cccccc; stroke-width: 0.8; stroke-linecap: round"/>
     </g>
     <g id="text_11">
      <!-- 10 -->
      <g style="fill: #262626" transform="translate(35.355 277.399219) scale(0.1 -0.1)">
       <use xlink:href="#DejaVuSans-31"/>
       <use xlink:href="#DejaVuSans-30" transform="translate(63.623047 0)"/>
      </g>
     </g>
    </g>
    <g id="ytick_4">
     <g id="line2d_11">
      <path d="M 55.08 218.16 
L 387.72 218.16 
" clip-path="url(#p7524c9f195)" style="fill: none; stroke: #cccccc; stroke-width: 0.8; stroke-linecap: round"/>
     </g>
     <g id="text_12">
      <!-- 15 -->
      <g style="fill: #262626" transform="translate(35.355 221.959219) scale(0.1 -0.1)">
       <use xlink:href="#DejaVuSans-31"/>
       <use xlink:href="#DejaVuSans-35" transform="translate(63.623047 0)"/>
      </g>
     </g>
    </g>
    <g id="ytick_5">
     <g id="line2d_12">
      <path d="M 55.08 162.72 
L 387.72 162.72 
" clip-path="url(#p7524c9f195)" style="fill: none; stroke: #cccccc; stroke-width: 0.8; stroke-linecap: round"/>
     </g>
     <g id="text_13">
      <!-- 20 -->
      <g style="fill: #262626" transform="translate(35.355 166.519219) scale(0.1 -0.1)">
       <use xlink:href="#DejaVuSans-32"/>
       <use xlink:href="#DejaVuSans-30" transform="translate(63.623047 0)"/>
      </g>
     </g>
    </g>
    <g id="ytick_6">
     <g id="line2d_13">
      <path d="M 55.08 107.28 
L 387.72 107.28 
" clip-path="url(#p7524c9f195)" style="fill: none; stroke: #cccccc; stroke-width: 0.8; stroke-linecap: round"/>
     </g>
     <g id="text_14">
      <!-- 25 -->
      <g style="fill: #262626" transform="translate(35.355 111.079219) scale(0.1 -0.1)">
       <use xlink:href="#DejaVuSans-32"/>
       <use xlink:href="#DejaVuSans-35" transform="translate(63.623047 0)"/>
      </g>
     </g>
    </g>
    <g id="ytick_7">
     <g id="line2d_14">
      <path d="M 55.08 51.84 
L 387.72 51.84 
" clip-path="url(#p7524c9f195)" style="fill: none; stroke: #cccccc; stroke-width: 0.8; stroke-linecap: round"/>
     </g>
     <g id="text_15">
      <!-- 30 -->
      <g style="fill: #262626" transform="translate(35.355 55.639219) scale(0.1 -0.1)">
       <use xlink:href="#DejaVuSans-33"/>
       <use xlink:href="#DejaVuSans-30" transform="translate(63.623047 0)"/>
      </g>
     </g>
    </g>
    <g id="text_16">
     <!-- Effective Infiltration Rate [L/T] -->
     <g style="fill: #262626" transform="translate(29.275312 304.607656) rotate(-90) scale(0.1 -0.1)">
      <defs>
       <path id="DejaVuSans-Bold-45" d="M 588 4666 
L 3834 4666 
L 3834 3756 
L 1791 3756 
L 1791 2888 
L 3713 2888 
L 3713 1978 
L 1791 1978 
L 1791 909 
L 3903 909 
L 3903 0 
L 588 0 
L 588 4666 
z
" transform="scale(0.015625)"/>
       <path id="DejaVuSans-Bold-63" d="M 3366 3391 
L 3366 2478 
Q 3138 2634 2908 2709 
Q 2678 2784 2431 2784 
Q 1963 2784 1702 2511 
Q 1441 2238 1441 1747 
Q 1441 1256 1702 982 
Q 1963 709 2431 709 
Q 2694 709 2930 787 
Q 3166 866 3366 1019 
L 3366 103 
Q 3103 6 2833 -42 
Q 2563 -91 2291 -91 
Q 1344 -91 809 395 
Q 275 881 275 1747 
Q 275 2613 809 3098 
Q 1344 3584 2291 3584 
Q 2566 3584 2833 3536 
Q 3100 3488 3366 3391 
z
" transform="scale(0.015625)"/>
       <path id="DejaVuSans-Bold-6f" d="M 2203 2784 
Q 1831 2784 1636 2517 
Q 1441 2250 1441 1747 
Q 1441 1244 1636 976 
Q 1831 709 2203 709 
Q 2569 709 2762 976 
Q 2956 1244 2956 1747 
Q 2956 2250 2762 2517 
Q 2569 2784 2203 2784 
z
M 2203 3584 
Q 3106 3584 3614 3096 
Q 4122 2609 4122 1747 
Q 4122 884 3614 396 
Q 3106 -91 2203 -91 
Q 1297 -91 786 396 
Q 275 884 275 1747 
Q 275 2609 786 3096 
Q 1297 3584 2203 3584 
z
" transform="scale(0.015625)"/>
      </defs>
      <use xlink:href="#DejaVuSans-Bold-45"/>
      <use xlink:href="#DejaVuSans-Bold-66" transform="translate(68.310547 0)"/>
      <use xlink:href="#DejaVuSans-Bold-66" transform="translate(111.816406 0)"/>
      <use xlink:href="#DejaVuSans-Bold-65" transform="translate(155.322266 0)"/>
      <use xlink:href="#DejaVuSans-Bold-63" transform="translate(223.144531 0)"/>
      <use xlink:href="#DejaVuSans-Bold-74" transform="translate(282.421875 0)"/>
      <use xlink:href="#DejaVuSans-Bold-69" transform="translate(330.224609 0)"/>
      <use xlink:href="#DejaVuSans-Bold-76" transform="translate(364.501953 0)"/>
      <use xlink:href="#DejaVuSans-Bold-65" transform="translate(429.6875 0)"/>
      <use xlink:href="#DejaVuSans-Bold-20" transform="translate(497.509766 0)"/>
      <use xlink:href="#DejaVuSans-Bold-49" transform="translate(532.324219 0)"/>
      <use xlink:href="#DejaVuSans-Bold-6e" transform="translate(569.53125 0)"/>
      <use xlink:href="#DejaVuSans-Bold-66" transform="translate(640.722656 0)"/>
      <use xlink:href="#DejaVuSans-Bold-69" transform="translate(684.228516 0)"/>
      <use xlink:href="#DejaVuSans-Bold-6c" transform="translate(718.505859 0)"/>
      <use xlink:href="#DejaVuSans-Bold-74" transform="translate(752.783203 0)"/>
      <use xlink:href="#DejaVuSans-Bold-72" transform="translate(800.585938 0)"/>
      <use xlink:href="#DejaVuSans-Bold-61" transform="translate(849.902344 0)"/>
      <use xlink:href="#DejaVuSans-Bold-74" transform="translate(917.382812 0)"/>
      <use xlink:href="#DejaVuSans-Bold-69" transform="translate(965.185547 0)"/>
      <use xlink:href="#DejaVuSans-Bold-6f" transform="translate(999.462891 0)"/>
      <use xlink:href="#DejaVuSans-Bold-6e" transform="translate(1068.164062 0)"/>
      <use xlink:href="#DejaVuSans-Bold-20" transform="translate(1139.355469 0)"/>
      <use xlink:href="#DejaVuSans-Bold-52" transform="translate(1174.169922 0)"/>
      <use xlink:href="#DejaVuSans-Bold-61" transform="translate(1251.171875 0)"/>
      <use xlink:href="#DejaVuSans-Bold-74" transform="translate(1318.652344 0)"/>
      <use xlink:href="#DejaVuSans-Bold-65" transform="translate(1366.455078 0)"/>
      <use xlink:href="#DejaVuSans-Bold-20" transform="translate(1434.277344 0)"/>
      <use xlink:href="#DejaVuSans-Bold-5b" transform="translate(1469.091797 0)"/>
      <use xlink:href="#DejaVuSans-Bold-4c" transform="translate(1514.794922 0)"/>
      <use xlink:href="#DejaVuSans-Bold-2f" transform="translate(1578.515625 0)"/>
      <use xlink:href="#DejaVuSans-Bold-54" transform="translate(1615.039062 0)"/>
      <use xlink:href="#DejaVuSans-Bold-5d" transform="translate(1683.251953 0)"/>
     </g>
    </g>
   </g>
   <g id="line2d_15">
    <path d="M 55.08 384.48 
L 58.44 381.120505 
L 61.8 377.762055 
L 65.16 374.404682 
L 68.52 371.048406 
L 71.88 367.69328 
L 75.240001 364.339331 
L 78.599999 360.986612 
L 81.960001 357.63518 
L 85.32 354.285054 
L 88.68 350.936309 
L 92.039999 347.589006 
L 95.400001 344.243192 
L 98.760001 340.898959 
L 102.119997 337.556363 
L 105.48 334.215495 
L 108.840002 330.876451 
L 112.199998 327.539342 
L 115.56 324.204275 
L 118.920003 320.871369 
L 122.279999 317.540806 
L 125.640001 314.212739 
L 128.999998 310.887373 
L 132.36 307.564947 
L 135.720002 304.245735 
L 139.079999 300.930092 
L 142.440001 297.618426 
L 145.799998 294.311306 
L 149.159995 291.009415 
L 152.520002 287.713752 
L 155.879999 284.425756 
L 159.239996 281.147785 
L 162.600003 277.8843 
L 165.96 274.648319 
L 169.319997 273.6 
L 172.680004 273.6 
L 176.040001 273.6 
L 179.399998 273.6 
L 182.760005 273.6 
L 186.120002 273.6 
L 189.479999 273.6 
L 192.839996 273.6 
L 196.200003 273.6 
L 199.56 273.6 
L 202.919996 273.6 
L 206.280004 273.6 
L 209.640001 273.6 
L 212.999997 273.6 
L 216.360005 273.6 
L 219.720002 273.6 
L 223.079998 273.6 
L 226.439995 273.6 
L 229.800003 273.6 
L 233.159999 273.6 
L 236.519996 273.6 
L 239.879993 273.6 
L 243.23999 273.6 
L 246.600008 273.6 
L 249.960004 273.6 
L 253.320001 273.6 
L 256.679998 273.6 
L 260.039995 273.6 
L 263.399992 273.6 
L 266.76001 273.6 
L 270.120006 273.6 
L 273.480003 273.6 
L 276.84 273.6 
L 280.199997 273.6 
L 283.559994 273.6 
L 286.91999 273.6 
L 290.280008 273.6 
L 293.640005 273.6 
L 297.000002 273.6 
L 300.359999 273.6 
L 303.719996 273.6 
L 307.079992 273.6 
L 310.44001 273.6 
L 313.800007 273.6 
L 317.160004 273.6 
L 320.520001 273.6 
L 323.879997 273.6 
L 327.239994 273.6 
L 330.599991 273.6 
L 333.960009 273.6 
L 337.320006 273.6 
L 340.680003 273.6 
L 344.039999 273.6 
L 347.399996 273.6 
L 350.759993 273.6 
L 354.11999 273.6 
L 357.480008 273.6 
L 360.840004 273.6 
L 364.200001 273.6 
L 367.559998 273.6 
L 370.919995 273.6 
L 374.279992 273.6 
L 377.64001 273.6 
L 381.000006 273.6 
L 384.360003 273.6 
L 387.72 273.6 
" clip-path="url(#p7524c9f195)" style="fill: none; stroke: #1f77b4; stroke-width: 1.5; stroke-linecap: round"/>
   </g>
   <g id="line2d_16">
    <path d="M 55.08 384.48 
L 58.44 381.128542 
L 61.8 377.794406 
L 65.16 374.477962 
L 68.52 371.179594 
L 71.88 367.899705 
L 75.240001 364.638717 
L 78.599999 361.397092 
L 81.960001 358.175283 
L 85.32 354.973814 
L 88.68 351.793211 
L 92.039999 348.634021 
L 95.400001 345.496852 
L 98.760001 342.382338 
L 102.119997 339.291168 
L 105.48 336.224043 
L 108.840002 333.181763 
L 112.199998 330.165173 
L 115.56 327.175157 
L 118.920003 324.212718 
L 122.279999 321.27891 
L 125.640001 318.374884 
L 128.999998 315.501946 
L 132.36 312.661478 
L 135.720002 309.855047 
L 139.079999 307.08439 
L 142.440001 304.351452 
L 145.799998 301.658442 
L 149.159995 299.007894 
L 152.520002 296.402688 
L 155.879999 293.846246 
L 159.239996 291.342591 
L 162.600003 288.896609 
L 165.96 286.514326 
L 169.319997 284.203389 
L 172.680004 281.973905 
L 176.040001 279.839961 
L 179.399998 277.822673 
L 182.760005 275.958099 
L 186.120002 274.326774 
L 189.479999 273.6 
L 192.839996 273.6 
L 196.200003 273.6 
L 199.56 273.6 
L 202.919996 273.6 
L 206.280004 273.6 
L 209.640001 273.6 
L 212.999997 273.6 
L 216.360005 273.6 
L 219.720002 273.6 
L 223.079998 273.6 
L 226.439995 273.6 
L 229.800003 273.6 
L 233.159999 273.6 
L 236.519996 273.6 
L 239.879993 273.6 
L 243.23999 273.6 
L 246.600008 273.6 
L 249.960004 273.6 
L 253.320001 273.6 
L 256.679998 273.6 
L 260.039995 273.6 
L 263.399992 273.6 
L 266.76001 273.6 
L 270.120006 273.6 
L 273.480003 273.6 
L 276.84 273.6 
L 280.199997 273.6 
L 283.559994 273.6 
L 286.91999 273.6 
L 290.280008 273.6 
L 293.640005 273.6 
L 297.000002 273.6 
L 300.359999 273.6 
L 303.719996 273.6 
L 307.079992 273.6 
L 310.44001 273.6 
L 313.800007 273.6 
L 317.160004 273.6 
L 320.520001 273.6 
L 323.879997 273.6 
L 327.239994 273.6 
L 330.599991 273.6 
L 333.960009 273.6 
L 337.320006 273.6 
L 340.680003 273.6 
L 344.039999 273.6 
L 347.399996 273.6 
L 350.759993 273.6 
L 354.11999 273.6 
L 357.480008 273.6 
L 360.840004 273.6 
L 364.200001 273.6 
L 367.559998 273.6 
L 370.919995 273.6 
L 374.279992 273.6 
L 377.64001 273.6 
L 381.000006 273.6 
L 384.360003 273.6 
L 387.72 273.6 
" clip-path="url(#p7524c9f195)" style="fill: none; stroke: #ff7f0e; stroke-width: 1.5; stroke-linecap: round"/>
   </g>
   <g id="line2d_17">
    <path d="M 55.08 384.48 
L 58.44 381.137021 
L 61.8 377.828343 
L 65.16 374.554309 
L 68.52 371.315283 
L 71.88 368.111674 
L 75.240001 364.943846 
L 78.599999 361.81223 
L 81.960001 358.717252 
L 85.32 355.659322 
L 88.68 352.638936 
L 92.039999 349.656533 
L 95.400001 346.71261 
L 98.760001 343.807688 
L 102.119997 340.942298 
L 105.48 338.116982 
L 108.840002 335.332325 
L 112.199998 332.588918 
L 115.56 329.887407 
L 118.920003 327.228436 
L 122.279999 324.612714 
L 125.640001 322.040955 
L 128.999998 319.513936 
L 132.36 317.032439 
L 135.720002 314.597343 
L 139.079999 312.209535 
L 142.440001 309.869978 
L 145.799998 307.579671 
L 149.159995 305.339725 
L 152.520002 303.151275 
L 155.879999 301.01557 
L 159.239996 298.933958 
L 162.600003 296.907862 
L 165.96 294.938861 
L 169.319997 293.02867 
L 172.680004 291.179123 
L 176.040001 289.392323 
L 179.399998 287.670525 
L 182.760005 286.016296 
L 186.120002 284.432513 
L 189.479999 282.922466 
L 192.839996 281.489949 
L 196.200003 280.139394 
L 199.56 278.876131 
L 202.919996 277.706662 
L 206.280004 276.639235 
L 209.640001 275.684721 
L 212.999997 274.858505 
L 216.360005 274.184899 
L 219.720002 273.712564 
L 223.079998 273.6 
L 226.439995 273.6 
L 229.800003 273.6 
L 233.159999 273.6 
L 236.519996 273.6 
L 239.879993 273.6 
L 243.23999 273.6 
L 246.600008 273.6 
L 249.960004 273.6 
L 253.320001 273.6 
L 256.679998 273.6 
L 260.039995 273.6 
L 263.399992 273.6 
L 266.76001 273.6 
L 270.120006 273.6 
L 273.480003 273.6 
L 276.84 273.6 
L 280.199997 273.6 
L 283.559994 273.6 
L 286.91999 273.6 
L 290.280008 273.6 
L 293.640005 273.6 
L 297.000002 273.6 
L 300.359999 273.6 
L 303.719996 273.6 
L 307.079992 273.6 
L 310.44001 273.6 
L 313.800007 273.6 
L 317.160004 273.6 
L 320.520001 273.6 
L 323.879997 273.6 
L 327.239994 273.6 
L 330.599991 273.6 
L 333.960009 273.6 
L 337.320006 273.6 
L 340.680003 273.6 
L 344.039999 273.6 
L 347.399996 273.6 
L 350.759993 273.6 
L 354.11999 273.6 
L 357.480008 273.6 
L 360.840004 273.6 
L 364.200001 273.6 
L 367.559998 273.6 
L 370.919995 273.6 
L 374.279992 273.6 
L 377.64001 273.6 
L 381.000006 273.6 
L 384.360003 273.6 
L 387.72 273.6 
" clip-path="url(#p7524c9f195)" style="fill: none; stroke: #2ca02c; stroke-width: 1.5; stroke-linecap: round"/>
   </g>
   <g id="line2d_18">
    <path d="M 55.08 384.48 
L 58.44 381.145461 
L 61.8 377.861824 
L 65.16 374.629089 
L 68.52 371.44727 
L 71.88 368.316367 
L 75.240001 365.236359 
L 78.599999 362.207266 
L 81.960001 359.229087 
L 85.32 356.301819 
L 88.68 353.425461 
L 92.039999 350.60001 
L 95.400001 347.825454 
L 98.760001 345.101821 
L 102.119997 342.429098 
L 105.48 339.80727 
L 108.840002 337.236362 
L 112.199998 334.716364 
L 115.56 332.247277 
L 118.920003 329.829089 
L 122.279999 327.461822 
L 125.640001 325.14546 
L 128.999998 322.880002 
L 132.36 320.66545 
L 135.720002 318.501818 
L 139.079999 316.389091 
L 142.440001 314.327275 
L 145.799998 312.316368 
L 149.159995 310.356366 
L 152.520002 308.447275 
L 155.879999 306.589088 
L 159.239996 304.781822 
L 162.600003 303.025456 
L 165.96 301.32 
L 169.319997 299.665459 
L 172.680004 298.061813 
L 176.040001 296.509093 
L 179.399998 295.007267 
L 182.760005 293.556361 
L 186.120002 292.156361 
L 189.479999 290.807265 
L 192.839996 289.509085 
L 196.200003 288.261821 
L 199.56 287.065461 
L 202.919996 285.920006 
L 206.280004 284.825456 
L 209.640001 283.781821 
L 212.999997 282.789092 
L 216.360005 281.847267 
L 219.720002 280.956368 
L 223.079998 280.116364 
L 226.439995 279.327274 
L 229.800003 278.58909 
L 233.159999 277.901822 
L 236.519996 277.265458 
L 239.879993 276.679999 
L 243.23999 276.145455 
L 246.600008 275.661817 
L 249.960004 275.229094 
L 253.320001 274.847265 
L 256.679998 274.516362 
L 260.039995 274.236364 
L 263.399992 274.007271 
L 266.76001 273.829093 
L 270.120006 273.70182 
L 273.480003 273.625463 
L 276.84 273.6 
L 280.199997 273.6 
L 283.559994 273.6 
L 286.91999 273.6 
L 290.280008 273.6 
L 293.640005 273.6 
L 297.000002 273.6 
L 300.359999 273.6 
L 303.719996 273.6 
L 307.079992 273.6 
L 310.44001 273.6 
L 313.800007 273.6 
L 317.160004 273.6 
L 320.520001 273.6 
L 323.879997 273.6 
L 327.239994 273.6 
L 330.599991 273.6 
L 333.960009 273.6 
L 337.320006 273.6 
L 340.680003 273.6 
L 344.039999 273.6 
L 347.399996 273.6 
L 350.759993 273.6 
L 354.11999 273.6 
L 357.480008 273.6 
L 360.840004 273.6 
L 364.200001 273.6 
L 367.559998 273.6 
L 370.919995 273.6 
L 374.279992 273.6 
L 377.64001 273.6 
L 381.000006 273.6 
L 384.360003 273.6 
L 387.72 273.6 
" clip-path="url(#p7524c9f195)" style="fill: none; stroke: #d62728; stroke-width: 1.5; stroke-linecap: round"/>
   </g>
   <g id="line2d_19">
    <path d="M 55.08 384.48 
L 58.44 381.162155 
L 61.8 377.927425 
L 65.16 374.774202 
L 68.52 371.700764 
L 71.88 368.705568 
L 75.240001 365.786964 
L 78.599999 362.943359 
L 81.960001 360.173252 
L 85.32 357.475063 
L 88.68 354.847345 
L 92.039999 352.288566 
L 95.400001 349.797325 
L 98.760001 347.372158 
L 102.119997 345.011638 
L 105.48 342.71442 
L 108.840002 340.479089 
L 112.199998 338.30436 
L 115.56 336.188857 
L 118.920003 334.131334 
L 122.279999 332.130489 
L 125.640001 330.185042 
L 128.999998 328.2938 
L 132.36 326.455531 
L 135.720002 324.669022 
L 139.079999 322.933138 
L 142.440001 321.246684 
L 145.799998 319.608576 
L 149.159995 318.017646 
L 152.520002 316.472845 
L 155.879999 314.973081 
L 159.239996 313.51728 
L 162.600003 312.104427 
L 165.96 310.733484 
L 169.319997 309.403476 
L 172.680004 308.11339 
L 176.040001 306.862287 
L 179.399998 305.649214 
L 182.760005 304.473216 
L 186.120002 303.333418 
L 189.479999 302.228907 
L 192.839996 301.158784 
L 196.200003 300.122197 
L 199.56 299.118327 
L 202.919996 298.146323 
L 206.280004 297.20536 
L 209.640001 296.294656 
L 212.999997 295.413427 
L 216.360005 294.560881 
L 219.720002 293.736305 
L 223.079998 292.938936 
L 226.439995 292.168035 
L 229.800003 291.422935 
L 233.159999 290.702918 
L 236.519996 290.007295 
L 239.879993 289.335423 
L 243.23999 288.686634 
L 246.600008 288.060284 
L 249.960004 287.45576 
L 253.320001 286.872437 
L 256.679998 286.309734 
L 260.039995 285.767059 
L 263.399992 285.243819 
L 266.76001 284.739465 
L 270.120006 284.253469 
L 273.480003 283.785258 
L 276.84 283.334315 
L 280.199997 282.900154 
L 283.559994 282.482235 
L 286.91999 282.080082 
L 290.280008 281.69323 
L 293.640005 281.321193 
L 297.000002 280.963516 
L 300.359999 280.619755 
L 303.719996 280.289476 
L 307.079992 279.972246 
L 310.44001 279.667652 
L 313.800007 279.375293 
L 317.160004 279.094766 
L 320.520001 278.825691 
L 323.879997 278.567688 
L 327.239994 278.320386 
L 330.599991 278.083425 
L 333.960009 277.856468 
L 337.320006 277.639166 
L 340.680003 277.431179 
L 344.039999 277.232201 
L 347.399996 277.041916 
L 350.759993 276.860006 
L 354.11999 276.686185 
L 357.480008 276.520147 
L 360.840004 276.361616 
L 364.200001 276.210339 
L 367.559998 276.066031 
L 370.919995 275.928428 
L 374.279992 275.797285 
L 377.64001 275.672349 
L 381.000006 275.553398 
L 384.360003 275.440189 
L 387.72 275.3325 
" clip-path="url(#p7524c9f195)" style="fill: none; stroke: #9467bd; stroke-width: 1.5; stroke-linecap: round"/>
   </g>
   <g id="line2d_20">
    <path d="M 55.08 384.48 
L 58.44 381.12 
L 61.8 377.76 
L 65.16 374.4 
L 68.52 371.04 
L 71.88 367.68 
L 75.240001 364.319999 
L 78.599999 360.960001 
L 81.960001 357.599999 
L 85.32 354.24 
L 88.68 350.88 
L 92.039999 347.520001 
L 95.400001 344.159999 
L 98.760001 340.799999 
L 102.119997 337.440003 
L 105.48 334.08 
L 108.840002 330.719998 
L 112.199998 327.360002 
L 115.56 324 
L 118.920003 320.639997 
L 122.279999 317.280001 
L 125.640001 313.919999 
L 128.999998 310.560002 
L 132.36 307.2 
L 135.720002 303.839998 
L 139.079999 300.480001 
L 142.440001 297.119999 
L 145.799998 293.760002 
L 149.159995 290.400005 
L 152.520002 287.039998 
L 155.879999 283.680001 
L 159.239996 280.320004 
L 162.600003 276.959997 
L 165.96 273.6 
L 169.319997 270.240003 
L 172.680004 266.879996 
L 176.040001 263.519999 
L 179.399998 260.160002 
L 182.760005 256.799995 
L 186.120002 253.439998 
L 189.479999 250.080001 
L 192.839996 246.720004 
L 196.200003 243.359997 
L 199.56 240 
L 202.919996 236.640004 
L 206.280004 233.279996 
L 209.640001 229.919999 
L 212.999997 226.560003 
L 216.360005 223.199995 
L 219.720002 219.839998 
L 223.079998 216.480002 
L 226.439995 213.120005 
L 229.800003 209.759997 
L 233.159999 206.400001 
L 236.519996 203.040004 
L 239.879993 199.680007 
L 243.23999 196.32001 
L 246.600008 192.959992 
L 249.960004 189.599996 
L 253.320001 186.239999 
L 256.679998 182.880002 
L 260.039995 179.520005 
L 263.399992 176.160008 
L 266.76001 172.79999 
L 270.120006 169.439994 
L 273.480003 166.079997 
L 276.84 162.72 
L 280.199997 159.360003 
L 283.559994 156.000006 
L 286.91999 152.64001 
L 290.280008 149.279992 
L 293.640005 145.919995 
L 297.000002 142.559998 
L 300.359999 139.200001 
L 303.719996 135.840004 
L 307.079992 132.480008 
L 310.44001 129.11999 
L 313.800007 125.759993 
L 317.160004 122.399996 
L 320.520001 119.039999 
L 323.879997 115.680003 
L 327.239994 112.320006 
L 330.599991 108.960009 
L 333.960009 105.599991 
L 337.320006 102.239994 
L 340.680003 98.879997 
L 344.039999 95.520001 
L 347.399996 92.160004 
L 350.759993 88.800007 
L 354.11999 85.44001 
L 357.480008 82.079992 
L 360.840004 78.719996 
L 364.200001 75.359999 
L 367.559998 72.000002 
L 370.919995 68.640005 
L 374.279992 65.280008 
L 377.64001 61.91999 
L 381.000006 58.559994 
L 384.360003 55.199997 
L 387.72 51.84 
" clip-path="url(#p7524c9f195)" style="fill: none; stroke-dasharray: 5.55,2.4; stroke-dashoffset: 0; stroke: #000000; stroke-opacity: 0.3; stroke-width: 1.5"/>
   </g>
   <g id="line2d_21">
    <path d="M 55.08 273.6 
L 387.72 273.6 
" clip-path="url(#p7524c9f195)" style="fill: none; stroke-dasharray: 1.5,2.475; stroke-dashoffset: 0; stroke: #ff0000; stroke-width: 1.5"/>
   </g>
   <g id="patch_3">
    <path d="M 55.08 384.48 
L 55.08 51.84 
" style="fill: none; stroke: #cccccc; stroke-width: 0.8; stroke-linejoin: miter; stroke-linecap: square"/>
   </g>
   <g id="patch_4">
    <path d="M 387.72 384.48 
L 387.72 51.84 
" style="fill: none; stroke: #cccccc; stroke-width: 0.8; stroke-linejoin: miter; stroke-linecap: square"/>
   </g>
   <g id="patch_5">
    <path d="M 55.08 384.48 
L 387.72 384.48 
" style="fill: none; stroke: #cccccc; stroke-width: 0.8; stroke-linejoin: miter; stroke-linecap: square"/>
   </g>
   <g id="patch_6">
    <path d="M 55.08 51.84 
L 387.72 51.84 
" style="fill: none; stroke: #cccccc; stroke-width: 0.8; stroke-linejoin: miter; stroke-linecap: square"/>
   </g>
   <g id="text_17">
    <!-- Spatial Variability of Infiltration -->
    <g style="fill: #262626" transform="translate(128.391562 45.84) scale(0.12 -0.12)">
     <defs>
      <path id="DejaVuSans-53" d="M 3425 4513 
L 3425 3897 
Q 3066 4069 2747 4153 
Q 2428 4238 2131 4238 
Q 1616 4238 1336 4038 
Q 1056 3838 1056 3469 
Q 1056 3159 1242 3001 
Q 1428 2844 1947 2747 
L 2328 2669 
Q 3034 2534 3370 2195 
Q 3706 1856 3706 1288 
Q 3706 609 3251 259 
Q 2797 -91 1919 -91 
Q 1588 -91 1214 -16 
Q 841 59 441 206 
L 441 856 
Q 825 641 1194 531 
Q 1563 422 1919 422 
Q 2459 422 2753 634 
Q 3047 847 3047 1241 
Q 3047 1584 2836 1778 
Q 2625 1972 2144 2069 
L 1759 2144 
Q 1053 2284 737 2584 
Q 422 2884 422 3419 
Q 422 4038 858 4394 
Q 1294 4750 2059 4750 
Q 2388 4750 2728 4690 
Q 3069 4631 3425 4513 
z
" transform="scale(0.015625)"/>
      <path id="DejaVuSans-70" d="M 1159 525 
L 1159 -1331 
L 581 -1331 
L 581 3500 
L 1159 3500 
L 1159 2969 
Q 1341 3281 1617 3432 
Q 1894 3584 2278 3584 
Q 2916 3584 3314 3078 
Q 3713 2572 3713 1747 
Q 3713 922 3314 415 
Q 2916 -91 2278 -91 
Q 1894 -91 1617 61 
Q 1341 213 1159 525 
z
M 3116 1747 
Q 3116 2381 2855 2742 
Q 2594 3103 2138 3103 
Q 1681 3103 1420 2742 
Q 1159 2381 1159 1747 
Q 1159 1113 1420 752 
Q 1681 391 2138 391 
Q 2594 391 2855 752 
Q 3116 1113 3116 1747 
z
" transform="scale(0.015625)"/>
      <path id="DejaVuSans-61" d="M 2194 1759 
Q 1497 1759 1228 1600 
Q 959 1441 959 1056 
Q 959 750 1161 570 
Q 1363 391 1709 391 
Q 2188 391 2477 730 
Q 2766 1069 2766 1631 
L 2766 1759 
L 2194 1759 
z
M 3341 1997 
L 3341 0 
L 2766 0 
L 2766 531 
Q 2569 213 2275 61 
Q 1981 -91 1556 -91 
Q 1019 -91 701 211 
Q 384 513 384 1019 
Q 384 1609 779 1909 
Q 1175 2209 1959 2209 
L 2766 2209 
L 2766 2266 
Q 2766 2663 2505 2880 
Q 2244 3097 1772 3097 
Q 1472 3097 1187 3025 
Q 903 2953 641 2809 
L 641 3341 
Q 956 3463 1253 3523 
Q 1550 3584 1831 3584 
Q 2591 3584 2966 3190 
Q 3341 2797 3341 1997 
z
" transform="scale(0.015625)"/>
      <path id="DejaVuSans-74" d="M 1172 4494 
L 1172 3500 
L 2356 3500 
L 2356 3053 
L 1172 3053 
L 1172 1153 
Q 1172 725 1289 603 
Q 1406 481 1766 481 
L 2356 481 
L 2356 0 
L 1766 0 
Q 1100 0 847 248 
Q 594 497 594 1153 
L 594 3053 
L 172 3053 
L 172 3500 
L 594 3500 
L 594 4494 
L 1172 4494 
z
" transform="scale(0.015625)"/>
      <path id="DejaVuSans-69" d="M 603 3500 
L 1178 3500 
L 1178 0 
L 603 0 
L 603 3500 
z
M 603 4863 
L 1178 4863 
L 1178 4134 
L 603 4134 
L 603 4863 
z
" transform="scale(0.015625)"/>
      <path id="DejaVuSans-6c" d="M 603 4863 
L 1178 4863 
L 1178 0 
L 603 0 
L 603 4863 
z
" transform="scale(0.015625)"/>
      <path id="DejaVuSans-20" transform="scale(0.015625)"/>
      <path id="DejaVuSans-56" d="M 1831 0 
L 50 4666 
L 709 4666 
L 2188 738 
L 3669 4666 
L 4325 4666 
L 2547 0 
L 1831 0 
z
" transform="scale(0.015625)"/>
      <path id="DejaVuSans-72" d="M 2631 2963 
Q 2534 3019 2420 3045 
Q 2306 3072 2169 3072 
Q 1681 3072 1420 2755 
Q 1159 2438 1159 1844 
L 1159 0 
L 581 0 
L 581 3500 
L 1159 3500 
L 1159 2956 
Q 1341 3275 1631 3429 
Q 1922 3584 2338 3584 
Q 2397 3584 2469 3576 
Q 2541 3569 2628 3553 
L 2631 2963 
z
" transform="scale(0.015625)"/>
      <path id="DejaVuSans-62" d="M 3116 1747 
Q 3116 2381 2855 2742 
Q 2594 3103 2138 3103 
Q 1681 3103 1420 2742 
Q 1159 2381 1159 1747 
Q 1159 1113 1420 752 
Q 1681 391 2138 391 
Q 2594 391 2855 752 
Q 3116 1113 3116 1747 
z
M 1159 2969 
Q 1341 3281 1617 3432 
Q 1894 3584 2278 3584 
Q 2916 3584 3314 3078 
Q 3713 2572 3713 1747 
Q 3713 922 3314 415 
Q 2916 -91 2278 -91 
Q 1894 -91 1617 61 
Q 1341 213 1159 525 
L 1159 0 
L 581 0 
L 581 4863 
L 1159 4863 
L 1159 2969 
z
" transform="scale(0.015625)"/>
      <path id="DejaVuSans-79" d="M 2059 -325 
Q 1816 -950 1584 -1140 
Q 1353 -1331 966 -1331 
L 506 -1331 
L 506 -850 
L 844 -850 
Q 1081 -850 1212 -737 
Q 1344 -625 1503 -206 
L 1606 56 
L 191 3500 
L 800 3500 
L 1894 763 
L 2988 3500 
L 3597 3500 
L 2059 -325 
z
" transform="scale(0.015625)"/>
      <path id="DejaVuSans-6f" d="M 1959 3097 
Q 1497 3097 1228 2736 
Q 959 2375 959 1747 
Q 959 1119 1226 758 
Q 1494 397 1959 397 
Q 2419 397 2687 759 
Q 2956 1122 2956 1747 
Q 2956 2369 2687 2733 
Q 2419 3097 1959 3097 
z
M 1959 3584 
Q 2709 3584 3137 3096 
Q 3566 2609 3566 1747 
Q 3566 888 3137 398 
Q 2709 -91 1959 -91 
Q 1206 -91 779 398 
Q 353 888 353 1747 
Q 353 2609 779 3096 
Q 1206 3584 1959 3584 
z
" transform="scale(0.015625)"/>
      <path id="DejaVuSans-66" d="M 2375 4863 
L 2375 4384 
L 1825 4384 
Q 1516 4384 1395 4259 
Q 1275 4134 1275 3809 
L 1275 3500 
L 2222 3500 
L 2222 3053 
L 1275 3053 
L 1275 0 
L 697 0 
L 697 3053 
L 147 3053 
L 147 3500 
L 697 3500 
L 697 3744 
Q 697 4328 969 4595 
Q 1241 4863 1831 4863 
L 2375 4863 
z
" transform="scale(0.015625)"/>
      <path id="DejaVuSans-49" d="M 628 4666 
L 1259 4666 
L 1259 0 
L 628 0 
L 628 4666 
z
" transform="scale(0.015625)"/>
      <path id="DejaVuSans-6e" d="M 3513 2113 
L 3513 0 
L 2938 0 
L 2938 2094 
Q 2938 2591 2744 2837 
Q 2550 3084 2163 3084 
Q 1697 3084 1428 2787 
Q 1159 2491 1159 1978 
L 1159 0 
L 581 0 
L 581 3500 
L 1159 3500 
L 1159 2956 
Q 1366 3272 1645 3428 
Q 1925 3584 2291 3584 
Q 2894 3584 3203 3211 
Q 3513 2838 3513 2113 
z
" transform="scale(0.015625)"/>
     </defs>
     <use xlink:href="#DejaVuSans-53"/>
     <use xlink:href="#DejaVuSans-70" transform="translate(63.476562 0)"/>
     <use xlink:href="#DejaVuSans-61" transform="translate(126.953125 0)"/>
     <use xlink:href="#DejaVuSans-74" transform="translate(188.232422 0)"/>
     <use xlink:href="#DejaVuSans-69" transform="translate(227.441406 0)"/>
     <use xlink:href="#DejaVuSans-61" transform="translate(255.224609 0)"/>
     <use xlink:href="#DejaVuSans-6c" transform="translate(316.503906 0)"/>
     <use xlink:href="#DejaVuSans-20" transform="translate(344.287109 0)"/>
     <use xlink:href="#DejaVuSans-56" transform="translate(376.074219 0)"/>
     <use xlink:href="#DejaVuSans-61" transform="translate(436.732422 0)"/>
     <use xlink:href="#DejaVuSans-72" transform="translate(498.011719 0)"/>
     <use xlink:href="#DejaVuSans-69" transform="translate(539.125 0)"/>
     <use xlink:href="#DejaVuSans-61" transform="translate(566.908203 0)"/>
     <use xlink:href="#DejaVuSans-62" transform="translate(628.1875 0)"/>
     <use xlink:href="#DejaVuSans-69" transform="translate(691.664062 0)"/>
     <use xlink:href="#DejaVuSans-6c" transform="translate(719.447266 0)"/>
     <use xlink:href="#DejaVuSans-69" transform="translate(747.230469 0)"/>
     <use xlink:href="#DejaVuSans-74" transform="translate(775.013672 0)"/>
     <use xlink:href="#DejaVuSans-79" transform="translate(814.222656 0)"/>
     <use xlink:href="#DejaVuSans-20" transform="translate(873.402344 0)"/>
     <use xlink:href="#DejaVuSans-6f" transform="translate(905.189453 0)"/>
     <use xlink:href="#DejaVuSans-66" transform="translate(966.371094 0)"/>
     <use xlink:href="#DejaVuSans-20" transform="translate(1001.576172 0)"/>
     <use xlink:href="#DejaVuSans-49" transform="translate(1033.363281 0)"/>
     <use xlink:href="#DejaVuSans-6e" transform="translate(1062.855469 0)"/>
     <use xlink:href="#DejaVuSans-66" transform="translate(1126.234375 0)"/>
     <use xlink:href="#DejaVuSans-69" transform="translate(1161.439453 0)"/>
     <use xlink:href="#DejaVuSans-6c" transform="translate(1189.222656 0)"/>
     <use xlink:href="#DejaVuSans-74" transform="translate(1217.005859 0)"/>
     <use xlink:href="#DejaVuSans-72" transform="translate(1256.214844 0)"/>
     <use xlink:href="#DejaVuSans-61" transform="translate(1297.328125 0)"/>
     <use xlink:href="#DejaVuSans-74" transform="translate(1358.607422 0)"/>
     <use xlink:href="#DejaVuSans-69" transform="translate(1397.816406 0)"/>
     <use xlink:href="#DejaVuSans-6f" transform="translate(1425.599609 0)"/>
     <use xlink:href="#DejaVuSans-6e" transform="translate(1486.78125 0)"/>
    </g>
   </g>
   <g id="legend_1">
    <g id="patch_7">
     <path d="M 62.08 162.586875 
L 228.619062 162.586875 
Q 230.619062 162.586875 230.619062 160.586875 
L 230.619062 58.84 
Q 230.619062 56.84 228.619062 56.84 
L 62.08 56.84 
Q 60.08 56.84 60.08 58.84 
L 60.08 160.586875 
Q 60.08 162.586875 62.08 162.586875 
z
" style="fill: #ffffff; opacity: 0.8; stroke: #cccccc; stroke-linejoin: miter"/>
    </g>
    <g id="line2d_22">
     <path d="M 64.08 64.938437 
L 74.08 64.938437 
L 84.08 64.938437 
" style="fill: none; stroke: #1f77b4; stroke-width: 1.5; stroke-linecap: round"/>
    </g>
    <g id="text_18">
     <!-- beta=0.01 -->
     <g style="fill: #262626" transform="translate(92.08 68.438437) scale(0.1 -0.1)">
      <defs>
       <path id="DejaVuSans-65" d="M 3597 1894 
L 3597 1613 
L 953 1613 
Q 991 1019 1311 708 
Q 1631 397 2203 397 
Q 2534 397 2845 478 
Q 3156 559 3463 722 
L 3463 178 
Q 3153 47 2828 -22 
Q 2503 -91 2169 -91 
Q 1331 -91 842 396 
Q 353 884 353 1716 
Q 353 2575 817 3079 
Q 1281 3584 2069 3584 
Q 2775 3584 3186 3129 
Q 3597 2675 3597 1894 
z
M 3022 2063 
Q 3016 2534 2758 2815 
Q 2500 3097 2075 3097 
Q 1594 3097 1305 2825 
Q 1016 2553 972 2059 
L 3022 2063 
z
" transform="scale(0.015625)"/>
       <path id="DejaVuSans-3d" d="M 678 2906 
L 4684 2906 
L 4684 2381 
L 678 2381 
L 678 2906 
z
M 678 1631 
L 4684 1631 
L 4684 1100 
L 678 1100 
L 678 1631 
z
" transform="scale(0.015625)"/>
       <path id="DejaVuSans-2e" d="M 684 794 
L 1344 794 
L 1344 0 
L 684 0 
L 684 794 
z
" transform="scale(0.015625)"/>
      </defs>
      <use xlink:href="#DejaVuSans-62"/>
      <use xlink:href="#DejaVuSans-65" transform="translate(63.476562 0)"/>
      <use xlink:href="#DejaVuSans-74" transform="translate(125 0)"/>
      <use xlink:href="#DejaVuSans-61" transform="translate(164.208984 0)"/>
      <use xlink:href="#DejaVuSans-3d" transform="translate(225.488281 0)"/>
      <use xlink:href="#DejaVuSans-30" transform="translate(309.277344 0)"/>
      <use xlink:href="#DejaVuSans-2e" transform="translate(372.900391 0)"/>
      <use xlink:href="#DejaVuSans-30" transform="translate(404.6875 0)"/>
      <use xlink:href="#DejaVuSans-31" transform="translate(468.310547 0)"/>
     </g>
    </g>
    <g id="line2d_23">
     <path d="M 64.08 79.616562 
L 74.08 79.616562 
L 84.08 79.616562 
" style="fill: none; stroke: #ff7f0e; stroke-width: 1.5; stroke-linecap: round"/>
    </g>
    <g id="text_19">
     <!-- beta=0.2 -->
     <g style="fill: #262626" transform="translate(92.08 83.116562) scale(0.1 -0.1)">
      <use xlink:href="#DejaVuSans-62"/>
      <use xlink:href="#DejaVuSans-65" transform="translate(63.476562 0)"/>
      <use xlink:href="#DejaVuSans-74" transform="translate(125 0)"/>
      <use xlink:href="#DejaVuSans-61" transform="translate(164.208984 0)"/>
      <use xlink:href="#DejaVuSans-3d" transform="translate(225.488281 0)"/>
      <use xlink:href="#DejaVuSans-30" transform="translate(309.277344 0)"/>
      <use xlink:href="#DejaVuSans-2e" transform="translate(372.900391 0)"/>
      <use xlink:href="#DejaVuSans-32" transform="translate(404.6875 0)"/>
     </g>
    </g>
    <g id="line2d_24">
     <path d="M 64.08 94.294687 
L 74.08 94.294687 
L 84.08 94.294687 
" style="fill: none; stroke: #2ca02c; stroke-width: 1.5; stroke-linecap: round"/>
    </g>
    <g id="text_20">
     <!-- beta=0.5 -->
     <g style="fill: #262626" transform="translate(92.08 97.794687) scale(0.1 -0.1)">
      <use xlink:href="#DejaVuSans-62"/>
      <use xlink:href="#DejaVuSans-65" transform="translate(63.476562 0)"/>
      <use xlink:href="#DejaVuSans-74" transform="translate(125 0)"/>
      <use xlink:href="#DejaVuSans-61" transform="translate(164.208984 0)"/>
      <use xlink:href="#DejaVuSans-3d" transform="translate(225.488281 0)"/>
      <use xlink:href="#DejaVuSans-30" transform="translate(309.277344 0)"/>
      <use xlink:href="#DejaVuSans-2e" transform="translate(372.900391 0)"/>
      <use xlink:href="#DejaVuSans-35" transform="translate(404.6875 0)"/>
     </g>
    </g>
    <g id="line2d_25">
     <path d="M 64.08 108.972812 
L 74.08 108.972812 
L 84.08 108.972812 
" style="fill: none; stroke: #d62728; stroke-width: 1.5; stroke-linecap: round"/>
    </g>
    <g id="text_21">
     <!-- beta=1.0 -->
     <g style="fill: #262626" transform="translate(92.08 112.472812) scale(0.1 -0.1)">
      <use xlink:href="#DejaVuSans-62"/>
      <use xlink:href="#DejaVuSans-65" transform="translate(63.476562 0)"/>
      <use xlink:href="#DejaVuSans-74" transform="translate(125 0)"/>
      <use xlink:href="#DejaVuSans-61" transform="translate(164.208984 0)"/>
      <use xlink:href="#DejaVuSans-3d" transform="translate(225.488281 0)"/>
      <use xlink:href="#DejaVuSans-31" transform="translate(309.277344 0)"/>
      <use xlink:href="#DejaVuSans-2e" transform="translate(372.900391 0)"/>
      <use xlink:href="#DejaVuSans-30" transform="translate(404.6875 0)"/>
     </g>
    </g>
    <g id="line2d_26">
     <path d="M 64.08 123.650937 
L 74.08 123.650937 
L 84.08 123.650937 
" style="fill: none; stroke: #9467bd; stroke-width: 1.5; stroke-linecap: round"/>
    </g>
    <g id="text_22">
     <!-- beta=5.0 -->
     <g style="fill: #262626" transform="translate(92.08 127.150937) scale(0.1 -0.1)">
      <use xlink:href="#DejaVuSans-62"/>
      <use xlink:href="#DejaVuSans-65" transform="translate(63.476562 0)"/>
      <use xlink:href="#DejaVuSans-74" transform="translate(125 0)"/>
      <use xlink:href="#DejaVuSans-61" transform="translate(164.208984 0)"/>
      <use xlink:href="#DejaVuSans-3d" transform="translate(225.488281 0)"/>
      <use xlink:href="#DejaVuSans-35" transform="translate(309.277344 0)"/>
      <use xlink:href="#DejaVuSans-2e" transform="translate(372.900391 0)"/>
      <use xlink:href="#DejaVuSans-30" transform="translate(404.6875 0)"/>
     </g>
    </g>
    <g id="line2d_27">
     <path d="M 64.08 138.329062 
L 74.08 138.329062 
L 84.08 138.329062 
" style="fill: none; stroke-dasharray: 5.55,2.4; stroke-dashoffset: 0; stroke: #000000; stroke-opacity: 0.3; stroke-width: 1.5"/>
    </g>
    <g id="text_23">
     <!-- 1:1 Line (100% Infiltration) -->
     <g style="fill: #262626" transform="translate(92.08 141.829062) scale(0.1 -0.1)">
      <defs>
       <path id="DejaVuSans-3a" d="M 750 794 
L 1409 794 
L 1409 0 
L 750 0 
L 750 794 
z
M 750 3309 
L 1409 3309 
L 1409 2516 
L 750 2516 
L 750 3309 
z
" transform="scale(0.015625)"/>
       <path id="DejaVuSans-4c" d="M 628 4666 
L 1259 4666 
L 1259 531 
L 3531 531 
L 3531 0 
L 628 0 
L 628 4666 
z
" transform="scale(0.015625)"/>
       <path id="DejaVuSans-28" d="M 1984 4856 
Q 1566 4138 1362 3434 
Q 1159 2731 1159 2009 
Q 1159 1288 1364 580 
Q 1569 -128 1984 -844 
L 1484 -844 
Q 1016 -109 783 600 
Q 550 1309 550 2009 
Q 550 2706 781 3412 
Q 1013 4119 1484 4856 
L 1984 4856 
z
" transform="scale(0.015625)"/>
       <path id="DejaVuSans-25" d="M 4653 2053 
Q 4381 2053 4226 1822 
Q 4072 1591 4072 1178 
Q 4072 772 4226 539 
Q 4381 306 4653 306 
Q 4919 306 5073 539 
Q 5228 772 5228 1178 
Q 5228 1588 5073 1820 
Q 4919 2053 4653 2053 
z
M 4653 2450 
Q 5147 2450 5437 2106 
Q 5728 1763 5728 1178 
Q 5728 594 5436 251 
Q 5144 -91 4653 -91 
Q 4153 -91 3862 251 
Q 3572 594 3572 1178 
Q 3572 1766 3864 2108 
Q 4156 2450 4653 2450 
z
M 1428 4353 
Q 1159 4353 1004 4120 
Q 850 3888 850 3481 
Q 850 3069 1003 2837 
Q 1156 2606 1428 2606 
Q 1700 2606 1854 2837 
Q 2009 3069 2009 3481 
Q 2009 3884 1853 4118 
Q 1697 4353 1428 4353 
z
M 4250 4750 
L 4750 4750 
L 1831 -91 
L 1331 -91 
L 4250 4750 
z
M 1428 4750 
Q 1922 4750 2215 4408 
Q 2509 4066 2509 3481 
Q 2509 2891 2217 2550 
Q 1925 2209 1428 2209 
Q 931 2209 642 2551 
Q 353 2894 353 3481 
Q 353 4063 643 4406 
Q 934 4750 1428 4750 
z
" transform="scale(0.015625)"/>
       <path id="DejaVuSans-29" d="M 513 4856 
L 1013 4856 
Q 1481 4119 1714 3412 
Q 1947 2706 1947 2009 
Q 1947 1309 1714 600 
Q 1481 -109 1013 -844 
L 513 -844 
Q 928 -128 1133 580 
Q 1338 1288 1338 2009 
Q 1338 2731 1133 3434 
Q 928 4138 513 4856 
z
" transform="scale(0.015625)"/>
      </defs>
      <use xlink:href="#DejaVuSans-31"/>
      <use xlink:href="#DejaVuSans-3a" transform="translate(63.623047 0)"/>
      <use xlink:href="#DejaVuSans-31" transform="translate(97.314453 0)"/>
      <use xlink:href="#DejaVuSans-20" transform="translate(160.9375 0)"/>
      <use xlink:href="#DejaVuSans-4c" transform="translate(192.724609 0)"/>
      <use xlink:href="#DejaVuSans-69" transform="translate(248.4375 0)"/>
      <use xlink:href="#DejaVuSans-6e" transform="translate(276.220703 0)"/>
      <use xlink:href="#DejaVuSans-65" transform="translate(339.599609 0)"/>
      <use xlink:href="#DejaVuSans-20" transform="translate(401.123047 0)"/>
      <use xlink:href="#DejaVuSans-28" transform="translate(432.910156 0)"/>
      <use xlink:href="#DejaVuSans-31" transform="translate(471.923828 0)"/>
      <use xlink:href="#DejaVuSans-30" transform="translate(535.546875 0)"/>
      <use xlink:href="#DejaVuSans-30" transform="translate(599.169922 0)"/>
      <use xlink:href="#DejaVuSans-25" transform="translate(662.792969 0)"/>
      <use xlink:href="#DejaVuSans-20" transform="translate(757.8125 0)"/>
      <use xlink:href="#DejaVuSans-49" transform="translate(789.599609 0)"/>
      <use xlink:href="#DejaVuSans-6e" transform="translate(819.091797 0)"/>
      <use xlink:href="#DejaVuSans-66" transform="translate(882.470703 0)"/>
      <use xlink:href="#DejaVuSans-69" transform="translate(917.675781 0)"/>
      <use xlink:href="#DejaVuSans-6c" transform="translate(945.458984 0)"/>
      <use xlink:href="#DejaVuSans-74" transform="translate(973.242188 0)"/>
      <use xlink:href="#DejaVuSans-72" transform="translate(1012.451172 0)"/>
      <use xlink:href="#DejaVuSans-61" transform="translate(1053.564453 0)"/>
      <use xlink:href="#DejaVuSans-74" transform="translate(1114.84375 0)"/>
      <use xlink:href="#DejaVuSans-69" transform="translate(1154.052734 0)"/>
      <use xlink:href="#DejaVuSans-6f" transform="translate(1181.835938 0)"/>
      <use xlink:href="#DejaVuSans-6e" transform="translate(1243.017578 0)"/>
      <use xlink:href="#DejaVuSans-29" transform="translate(1306.396484 0)"/>
     </g>
    </g>
    <g id="line2d_28">
     <path d="M 64.08 153.007187 
L 74.08 153.007187 
L 84.08 153.007187 
" style="fill: none; stroke-dasharray: 1.5,2.475; stroke-dashoffset: 0; stroke: #ff0000; stroke-width: 1.5"/>
    </g>
    <g id="text_24">
     <!-- Mean Capacity (F) -->
     <g style="fill: #262626" transform="translate(92.08 156.507187) scale(0.1 -0.1)">
      <defs>
       <path id="DejaVuSans-4d" d="M 628 4666 
L 1569 4666 
L 2759 1491 
L 3956 4666 
L 4897 4666 
L 4897 0 
L 4281 0 
L 4281 4097 
L 3078 897 
L 2444 897 
L 1241 4097 
L 1241 0 
L 628 0 
L 628 4666 
z
" transform="scale(0.015625)"/>
       <path id="DejaVuSans-43" d="M 4122 4306 
L 4122 3641 
Q 3803 3938 3442 4084 
Q 3081 4231 2675 4231 
Q 1875 4231 1450 3742 
Q 1025 3253 1025 2328 
Q 1025 1406 1450 917 
Q 1875 428 2675 428 
Q 3081 428 3442 575 
Q 3803 722 4122 1019 
L 4122 359 
Q 3791 134 3420 21 
Q 3050 -91 2638 -91 
Q 1578 -91 968 557 
Q 359 1206 359 2328 
Q 359 3453 968 4101 
Q 1578 4750 2638 4750 
Q 3056 4750 3426 4639 
Q 3797 4528 4122 4306 
z
" transform="scale(0.015625)"/>
       <path id="DejaVuSans-63" d="M 3122 3366 
L 3122 2828 
Q 2878 2963 2633 3030 
Q 2388 3097 2138 3097 
Q 1578 3097 1268 2742 
Q 959 2388 959 1747 
Q 959 1106 1268 751 
Q 1578 397 2138 397 
Q 2388 397 2633 464 
Q 2878 531 3122 666 
L 3122 134 
Q 2881 22 2623 -34 
Q 2366 -91 2075 -91 
Q 1284 -91 818 406 
Q 353 903 353 1747 
Q 353 2603 823 3093 
Q 1294 3584 2113 3584 
Q 2378 3584 2631 3529 
Q 2884 3475 3122 3366 
z
" transform="scale(0.015625)"/>
       <path id="DejaVuSans-46" d="M 628 4666 
L 3309 4666 
L 3309 4134 
L 1259 4134 
L 1259 2759 
L 3109 2759 
L 3109 2228 
L 1259 2228 
L 1259 0 
L 628 0 
L 628 4666 
z
" transform="scale(0.015625)"/>
      </defs>
      <use xlink:href="#DejaVuSans-4d"/>
      <use xlink:href="#DejaVuSans-65" transform="translate(86.279297 0)"/>
      <use xlink:href="#DejaVuSans-61" transform="translate(147.802734 0)"/>
      <use xlink:href="#DejaVuSans-6e" transform="translate(209.082031 0)"/>
      <use xlink:href="#DejaVuSans-20" transform="translate(272.460938 0)"/>
      <use xlink:href="#DejaVuSans-43" transform="translate(304.248047 0)"/>
      <use xlink:href="#DejaVuSans-61" transform="translate(374.072266 0)"/>
      <use xlink:href="#DejaVuSans-70" transform="translate(435.351562 0)"/>
      <use xlink:href="#DejaVuSans-61" transform="translate(498.828125 0)"/>
      <use xlink:href="#DejaVuSans-63" transform="translate(560.107422 0)"/>
      <use xlink:href="#DejaVuSans-69" transform="translate(615.087891 0)"/>
      <use xlink:href="#DejaVuSans-74" transform="translate(642.871094 0)"/>
      <use xlink:href="#DejaVuSans-79" transform="translate(682.080078 0)"/>
      <use xlink:href="#DejaVuSans-20" transform="translate(741.259766 0)"/>
      <use xlink:href="#DejaVuSans-28" transform="translate(773.046875 0)"/>
      <use xlink:href="#DejaVuSans-46" transform="translate(812.060547 0)"/>
      <use xlink:href="#DejaVuSans-29" transform="translate(869.580078 0)"/>
     </g>
    </g>
   </g>
  </g>
 </g>
 <defs>
  <clipPath id="p7524c9f195">
   <rect x="55.08" y="51.84" width="332.64" height="332.64"/>
  </clipPath>
 </defs>
</svg>
